Newsreader6pt-MediumItalic.ufo
<glyph name="exclam" format="2">
  <advance width="658.1999999999999"/>
  <unicode hex="0021"/>
  <outline>
    <contour>
      <point x="732.0" y="1371.8" type="line" smooth="yes"/>
      <point x="745.4" y="1411.6"/>
      <point x="726.2" y="1432.8000000000002"/>
      <point x="603.6" y="1432.8000000000002" type="curve" smooth="yes"/>
      <point x="483.8" y="1432.8000000000002"/>
      <point x="453.59999999999997" y="1411.6000000000001"/>
      <point x="442.6" y="1371.8" type="curve" smooth="yes"/>
      <point x="421.4" y="1297.0" type="line" smooth="yes"/>
      <point x="407.0" y="1242.6"/>
      <point x="267.0" y="603.8"/>
      <point x="237.0" y="463.0" type="curve"/>
      <point x="381.4" y="463.0" type="line"/>
      <point x="438.40000000000003" y="603.8"/>
      <point x="688.5999999999999" y="1242.6"/>
      <point x="707.4" y="1297.0" type="curve" smooth="yes"/>
    </contour>
    <contour>
      <point x="256.2" y="290.4" type="curve" smooth="yes"/>
      <point x="112.60000000000001" y="290.4"/>
      <point x="43.6" y="198.4"/>
      <point x="43.6" y="90.80000000000001" type="curve" smooth="yes"/>
      <point x="43.6" y="19.400000000000002"/>
      <point x="87.4" y="-20.4"/>
      <point x="170.20000000000002" y="-20.4" type="curve" smooth="yes"/>
      <point x="313.79999999999995" y="-20.4"/>
      <point x="382.8" y="71.60000000000001"/>
      <point x="382.8" y="178.4" type="curve" smooth="yes"/>
      <point x="382.8" y="250.6"/>
      <point x="339.0" y="290.4"/>
    </contour>
  </outline>
</glyph>
<glyph name="quotesingle" format="2">
  <advance width="467.6"/>
  <unicode hex="0027"/>
  <outline>
    <contour>
      <point x="279.2" y="909.6" type="line"/>
      <point x="413.0" y="909.6" type="line"/>
      <point x="607.8" y="1369.6" type="line"/>
      <point x="621.4" y="1414.0" type="line"/>
      <point x="380.40000000000003" y="1414.0" type="line"/>
      <point x="366.8" y="1369.6" type="line"/>
    </contour>
  </outline>
</glyph>
<glyph name="plus" format="2">
  <advance width="1200.0"/>
  <unicode hex="002B"/>
  <outline>
    <contour>
      <point x="392.2" y="84.4" type="line"/>
      <point x="540.8" y="84.4" type="line"/>
      <point x="805.8" y="948.4" type="line"/>
      <point x="656.4" y="948.4" type="line"/>
    </contour>
    <contour>
      <point x="200.20000000000002" y="592.8" type="line"/>
      <point x="153.4" y="440.0" type="line"/>
      <point x="997.8" y="440.0" type="line"/>
      <point x="1044.6000000000001" y="592.8" type="line"/>
    </contour>
  </outline>
</glyph>
<glyph name="slash" format="2">
  <advance width="886.4"/>
  <unicode hex="002F"/>
  <outline>
    <contour>
      <point x="-82.4" y="0.0" type="line"/>
      <point x="103.4" y="0.0" type="line"/>
      <point x="1086.6" y="1414.0" type="line"/>
      <point x="901.5999999999999" y="1414.0" type="line"/>
    </contour>
  </outline>
</glyph>
<glyph name="one" format="2">
  <advance width="1350.0"/>
  <unicode hex="0031"/>
  <outline>
    <contour>
      <point x="487.8" y="157.4" type="line"/>
      <point x="218.8" y="97.8" type="line"/>
      <point x="187.79999999999998" y="0.0" type="line"/>
      <point x="948.2" y="0.0" type="line"/>
      <point x="978.2" y="97.8" type="line"/>
      <point x="746.6" y="157.6" type="line"/>
      <point x="1136.3999999999999" y="1430.0" type="line"/>
      <point x="943.0" y="1430.0" type="line"/>
      <point x="435.2" y="1222.4" type="line"/>
      <point x="473.20000000000005" y="1074.0" type="line"/>
      <point x="911.8" y="1203.0" type="line"/>
      <point x="841.6" y="1313.0" type="line"/>
    </contour>
  </outline>
</glyph>
<glyph name="colon" format="2">
  <advance width="623.8000000000001"/>
  <unicode hex="003A"/>
  <outline>
    <contour>
      <point x="237.79999999999998" y="296.2" type="curve" smooth="yes"/>
      <point x="98.6" y="296.2"/>
      <point x="27.4" y="201.6"/>
      <point x="27.4" y="95.4" type="curve" smooth="yes"/>
      <point x="27.4" y="22.6"/>
      <point x="73.19999999999999" y="-20.4"/>
      <point x="158.39999999999998" y="-20.4" type="curve" smooth="yes"/>
      <point x="297.6" y="-20.4"/>
      <point x="368.8" y="74.2"/>
      <point x="368.8" y="179.6" type="curve" smooth="yes"/>
      <point x="368.8" y="253.2"/>
      <point x="323.0" y="296.2"/>
    </contour>
    <contour>
      <point x="463.2" y="1050.0" type="curve" smooth="yes"/>
      <point x="324.0" y="1050.0"/>
      <point x="252.8" y="955.4000000000001"/>
      <point x="252.8" y="849.2" type="curve" smooth="yes"/>
      <point x="252.8" y="776.4"/>
      <point x="298.59999999999997" y="733.4"/>
      <point x="383.8" y="733.4" type="curve" smooth="yes"/>
      <point x="523.0" y="733.4"/>
      <point x="594.2" y="828.0"/>
      <point x="594.2" y="933.4000000000001" type="curve" smooth="yes"/>
      <point x="594.2" y="1007.0"/>
      <point x="548.4" y="1050.0"/>
    </contour>
  </outline>
</glyph>
<glyph name="at" format="2">
  <advance width="1928.1999999999998"/>
  <unicode hex="0040"/>
  <outline>
    <contour>
      <point x="1448.6000000000001" y="311.0" type="curve" smooth="yes"/>
      <point x="1377.3999999999999" y="311.0"/>
      <point x="1344.0" y="338.20000000000005"/>
      <point x="1344.0" y="406.79999999999995" type="curve" smooth="yes"/>
      <point x="1344.0" y="436.2"/>
      <point x="1349.0" y="469.8"/>
      <point x="1362.6" y="512.6" type="curve" smooth="yes"/>
      <point x="1513.3999999999999" y="1008.0" type="line"/>
      <point x="1321.2" y="1008.0" type="line"/>
      <point x="1236.4" y="858.1999999999999" type="line"/>
      <point x="1193.6" y="737.0" type="line" smooth="yes"/>
      <point x="1118.1999999999998" y="525.6"/>
      <point x="986.4000000000001" y="358.59999999999997"/>
      <point x="882.8000000000001" y="358.59999999999997" type="curve" smooth="yes"/>
      <point x="817.8" y="358.59999999999997"/>
      <point x="790.1999999999999" y="388.8"/>
      <point x="790.1999999999999" y="455.0" type="curve" smooth="yes"/>
      <point x="790.1999999999999" y="625.1999999999999"/>
      <point x="957.0" y="891.6"/>
      <point x="1112.4" y="891.6" type="curve" smooth="yes"/>
      <point x="1180.0" y="891.6"/>
      <point x="1219.6000000000001" y="860.8000000000001"/>
      <point x="1255.4" y="788.4" type="curve"/>
      <point x="1272.6000000000001" y="822.6" type="line"/>
      <point x="1227.2" y="955.8"/>
      <point x="1154.4" y="1027.8"/>
      <point x="1039.8" y="1027.8" type="curve" smooth="yes"/>
      <point x="771.8" y="1027.8"/>
      <point x="534.2" y="696.6"/>
      <point x="534.2" y="429.40000000000003" type="curve" smooth="yes"/>
      <point x="534.2" y="291.6"/>
      <point x="616.5999999999999" y="194.6"/>
      <point x="769.4" y="194.6" type="curve" smooth="yes"/>
      <point x="912.6" y="194.6"/>
      <point x="1010.6" y="275.6"/>
      <point x="1167.1999999999998" y="544.8" type="curve"/>
      <point x="1186.4" y="544.8" type="line"/>
      <point x="1167.8" y="493.40000000000003" type="line" smooth="yes"/>
      <point x="1153.4" y="452.0"/>
      <point x="1145.6000000000001" y="412.59999999999997"/>
      <point x="1145.6000000000001" y="378.59999999999997" type="curve" smooth="yes"/>
      <point x="1145.6000000000001" y="256.59999999999997"/>
      <point x="1232.2" y="185.8"/>
      <point x="1401.4" y="185.8" type="curve" smooth="yes"/>
      <point x="1718.0" y="185.8"/>
      <point x="1914.6" y="468.8"/>
      <point x="1914.6" y="847.8000000000001" type="curve" smooth="yes"/>
      <point x="1914.6" y="1233.4"/>
      <point x="1641.2" y="1436.0"/>
      <point x="1204.8" y="1436.0" type="curve" smooth="yes"/>
      <point x="479.6" y="1436.0"/>
      <point x="115.8" y="962.2"/>
      <point x="115.8" y="402.0" type="curve" smooth="yes"/>
      <point x="115.8" y="-30.000000000000004"/>
      <point x="397.4" y="-248.0"/>
      <point x="889.8000000000001" y="-248.0" type="curve" smooth="yes"/>
      <point x="1154.4" y="-248.0"/>
      <point x="1368.0" y="-184.4"/>
      <point x="1581.8000000000002" y="-63.6" type="curve"/>
      <point x="1533.0" y="38.4" type="line"/>
      <point x="1329.8" y="-69.2"/>
      <point x="1125.8" y="-126.2"/>
      <point x="926.8000000000001" y="-126.2" type="curve" smooth="yes"/>
      <point x="485.59999999999997" y="-126.2"/>
      <point x="265.20000000000005" y="67.39999999999999"/>
      <point x="265.20000000000005" y="427.40000000000003" type="curve" smooth="yes"/>
      <point x="265.20000000000005" y="909.4"/>
      <point x="563.2" y="1320.0"/>
      <point x="1186.4" y="1320.0" type="curve" smooth="yes"/>
      <point x="1556.2" y="1320.0"/>
      <point x="1776.2" y="1160.6"/>
      <point x="1776.2" y="837.8" type="curve" smooth="yes"/>
      <point x="1776.2" y="536.4"/>
      <point x="1633.0" y="311.0"/>
    </contour>
  </outline>
</glyph>
<glyph name="D" format="2">
  <advance width="1647.0"/>
  <unicode hex="0044"/>
  <anchor x="1065.6000000000001" y="1414.0" name="UCtop"/>
  <anchor x="738.6" y="0.0" name="bottom"/>
  <outline>
    <contour>
      <point x="661.1999999999999" y="163.6" type="curve" smooth="yes"/>
      <point x="310.4" y="163.6" type="line"/>
      <point x="248.2" y="0.0" type="line"/>
      <point x="665.4" y="0.0" type="line" smooth="yes"/>
      <point x="1253.2" y="0.0"/>
      <point x="1601.2" y="356.0"/>
      <point x="1601.2" y="906.0" type="curve" smooth="yes"/>
      <point x="1601.2" y="1226.2"/>
      <point x="1430.8" y="1414.0"/>
      <point x="952.0" y="1414.0" type="curve" smooth="yes"/>
      <point x="680.2" y="1414.0" type="line"/>
      <point x="638.8" y="1250.4" type="line"/>
      <point x="935.0" y="1250.4" type="line" smooth="yes"/>
      <point x="1226.0" y="1250.4"/>
      <point x="1330.1999999999998" y="1125.4"/>
      <point x="1330.1999999999998" y="917.0" type="curve" smooth="yes"/>
      <point x="1330.1999999999998" y="498.8"/>
      <point x="1106.3999999999999" y="163.6"/>
    </contour>
    <contour>
      <point x="516.0" y="1265.0" type="line"/>
      <point x="173.6" y="149.8" type="line"/>
      <point x="-13.6" y="101.60000000000001" type="line"/>
      <point x="-45.0" y="0.0" type="line"/>
      <point x="396.2" y="0.0" type="line"/>
      <point x="829.1999999999999" y="1414.0" type="line"/>
      <point x="371.6" y="1414.0" type="line"/>
      <point x="340.4" y="1312.3999999999999" type="line"/>
    </contour>
  </outline>
</glyph>
<glyph name="I" format="2">
  <advance width="841.8000000000001"/>
  <unicode hex="0049"/>
  <anchor x="670.8" y="1414.0" name="UCtop"/>
  <anchor x="422.79999999999995" y="0.0" name="right"/>
  <anchor x="284.8" y="0.0" name="bottom"/>
  <outline>
    <contour>
      <point x="516.0" y="1265.0" type="line"/>
      <point x="173.6" y="149.8" type="line"/>
      <point x="-13.6" y="101.60000000000001" type="line"/>
      <point x="-45.0" y="0.0" type="line"/>
      <point x="585.8" y="0.0" type="line"/>
      <point x="616.0" y="101.60000000000001" type="line"/>
      <point x="441.40000000000003" y="149.0" type="line"/>
      <point x="783.8" y="1264.1999999999998" type="line"/>
      <point x="971.0" y="1312.3999999999999" type="line"/>
      <point x="1001.1999999999999" y="1414.0" type="line"/>
      <point x="371.6" y="1414.0" type="line"/>
      <point x="340.4" y="1312.3999999999999" type="line"/>
    </contour>
  </outline>
</glyph>
<glyph name="L" format="2">
  <advance width="1339.0"/>
  <unicode hex="004C"/>
  <anchor x="689.4" y="1414.0" name="UCtop"/>
  <anchor x="1022.6" y="1414.0" name="right"/>
  <anchor x="529.8000000000001" y="0.0" name="bottom"/>
  <anchor x="1180.4" y="788.4" name="mid"/>
  <outline>
    <contour>
      <point x="783.8000000000001" y="1264.1999999999998" type="line"/>
      <point x="971.0" y="1312.4" type="line"/>
      <point x="1001.1999999999999" y="1414.0" type="line"/>
      <point x="371.59999999999997" y="1414.0" type="line"/>
      <point x="340.40000000000003" y="1312.4" type="line"/>
      <point x="516.0" y="1265.0" type="line"/>
      <point x="173.6" y="149.8" type="line"/>
      <point x="-13.6" y="101.6" type="line"/>
      <point x="-45.0" y="0.0" type="line"/>
      <point x="396.2" y="0.0" type="line"/>
    </contour>
    <contour>
      <point x="834.6" y="80.0" type="line"/>
      <point x="964.2" y="163.6" type="line"/>
      <point x="202.4" y="163.6" type="line"/>
      <point x="150.4" y="0.0" type="line"/>
      <point x="867.8" y="0.0" type="line"/>
      <point x="913.0" y="-78.19999999999999" type="line"/>
      <point x="1041.1999999999998" y="-78.19999999999999" type="line"/>
      <point x="1275.2" y="482.0" type="line"/>
      <point x="1127.8000000000002" y="482.0" type="line"/>
    </contour>
  </outline>
</glyph>
<glyph name="R" format="2">
  <advance width="1545.8"/>
  <unicode hex="0052"/>
  <anchor x="978.6" y="1414.0" name="UCtop"/>
  <anchor x="763.6" y="0.0" name="bottom"/>
  <outline>
    <contour>
      <point x="915.6" y="779.8" type="curve" smooth="yes"/>
      <point x="517.2" y="779.8" type="line"/>
      <point x="473.2" y="622.6" type="line"/>
      <point x="834.8000000000001" y="622.6" type="line" smooth="yes"/>
      <point x="960.5999999999999" y="622.6"/>
      <point x="978.8000000000001" y="599.4"/>
      <point x="995.0" y="416.0" type="curve" smooth="yes"/>
      <point x="1012.6" y="217.6" type="line" smooth="yes"/>
      <point x="1029.6" y="16.0"/>
      <point x="1081.1999999999998" y="-16.2"/>
      <point x="1377.8" y="0.0" type="curve"/>
      <point x="1409.8" y="119.6" type="line"/>
      <point x="1317.2" y="119.6"/>
      <point x="1289.8000000000002" y="133.0"/>
      <point x="1275.3999999999999" y="266.59999999999997" type="curve" smooth="yes"/>
      <point x="1257.0" y="434.8" type="line" smooth="yes"/>
      <point x="1237.6" y="616.1999999999999"/>
      <point x="1198.8000000000002" y="684.6"/>
      <point x="1044.4" y="701.6" type="curve"/>
      <point x="1044.4" y="694.0" type="line"/>
      <point x="1354.0" y="713.8000000000001"/>
      <point x="1507.4" y="883.4"/>
      <point x="1507.4" y="1123.8" type="curve" smooth="yes"/>
      <point x="1507.4" y="1294.8"/>
      <point x="1398.6000000000001" y="1414.0"/>
      <point x="1105.1999999999998" y="1414.0" type="curve" smooth="yes"/>
      <point x="717.1999999999999" y="1414.0" type="line"/>
      <point x="664.1999999999999" y="1250.4" type="line"/>
      <point x="1040.0" y="1250.4" type="line" smooth="yes"/>
      <point x="1176.8" y="1250.4"/>
      <point x="1235.2" y="1195.8"/>
      <point x="1235.2" y="1095.2" type="curve" smooth="yes"/>
      <point x="1235.2" y="925.2"/>
      <point x="1157.0" y="779.8"/>
    </contour>
    <contour>
      <point x="441.40000000000003" y="149.0" type="line"/>
      <point x="829.2" y="1414.0" type="line"/>
      <point x="371.6" y="1414.0" type="line"/>
      <point x="340.4" y="1312.3999999999999" type="line"/>
      <point x="516.0" y="1265.0" type="line"/>
      <point x="173.6" y="149.8" type="line"/>
      <point x="-13.6" y="101.60000000000001" type="line"/>
      <point x="-45.0" y="0.0" type="line"/>
      <point x="585.8" y="0.0" type="line"/>
      <point x="616.0" y="101.60000000000001" type="line"/>
    </contour>
  </outline>
</glyph>
<glyph name="V" format="2">
  <advance width="1583.6"/>
  <unicode hex="0056"/>
  <anchor x="1053.6" y="1414.0" name="UCtop"/>
  <anchor x="692.6" y="0.0" name="bottom"/>
  <outline>
    <contour>
      <point x="398.79999999999995" y="1265.0" type="line"/>
      <point x="500.20000000000005" y="-16.0" type="line"/>
      <point x="824.2" y="-16.0" type="line"/>
      <point x="1622.8" y="1265.6000000000001" type="line"/>
      <point x="1789.8" y="1312.3999999999999" type="line"/>
      <point x="1821.6000000000001" y="1414.0" type="line"/>
      <point x="1286.6" y="1414.0" type="line"/>
      <point x="1255.8" y="1312.3999999999999" type="line"/>
      <point x="1417.2" y="1265.6000000000001" type="line"/>
      <point x="710.6" y="88.39999999999999" type="line"/>
      <point x="748.0" y="90.60000000000001" type="line"/>
      <point x="670.5999999999999" y="1265.4" type="line"/>
      <point x="856.1999999999999" y="1312.3999999999999" type="line"/>
      <point x="888.2" y="1414.0" type="line"/>
      <point x="266.40000000000003" y="1414.0" type="line"/>
      <point x="234.6" y="1312.3999999999999" type="line"/>
    </contour>
  </outline>
</glyph>
<glyph name="W" format="2">
  <advance width="2176.2"/>
  <unicode hex="0057"/>
  <anchor x="1384.6" y="1414.0" name="UCtop"/>
  <anchor x="975.5999999999999" y="0.0" name="bottom"/>
  <outline>
    <contour>
      <point x="2027.8" y="1265.6" type="line"/>
      <point x="1455.6" y="104.2" type="line"/>
      <point x="1516.6" y="96.2" type="line"/>
      <point x="1569.6" y="1414.0" type="line"/>
      <point x="1247.0" y="1414.0" type="line"/>
      <point x="514.8" y="108.6" type="line"/>
      <point x="568.4" y="108.4" type="line"/>
      <point x="697.1999999999999" y="1263.2" type="line"/>
      <point x="878.8000000000001" y="1312.0" type="line"/>
      <point x="909.8" y="1414.0" type="line"/>
      <point x="286.0" y="1414.0" type="line"/>
      <point x="255.20000000000002" y="1312.0" type="line"/>
      <point x="418.8" y="1262.6000000000001" type="line"/>
      <point x="290.8" y="0.0" type="line"/>
      <point x="638.2" y="0.0" type="line"/>
      <point x="1317.0" y="1188.6" type="line"/>
      <point x="1277.8000000000002" y="1179.0" type="line"/>
      <point x="1229.8" y="0.0" type="line"/>
      <point x="1572.1999999999998" y="0.0" type="line"/>
      <point x="2217.0" y="1265.6" type="line"/>
      <point x="2384.0" y="1312.3999999999999" type="line"/>
      <point x="2415.0" y="1414.0" type="line"/>
      <point x="1898.0" y="1414.0" type="line"/>
      <point x="1866.3999999999999" y="1312.3999999999999" type="line"/>
    </contour>
  </outline>
</glyph>
<glyph name="Z" format="2">
  <advance width="1373.8000000000002"/>
  <unicode hex="005A"/>
  <anchor x="964.2" y="1414.0" name="UCtop"/>
  <anchor x="515.2" y="0.0" name="bottom"/>
  <outline>
    <contour>
      <point x="1493.6" y="1414.0" type="line"/>
      <point x="592.0" y="1414.0" type="line"/>
      <point x="535.0" y="1488.2" type="line"/>
      <point x="425.79999999999995" y="1488.2" type="line"/>
      <point x="270.8" y="988.6" type="line"/>
      <point x="415.4" y="988.6" type="line"/>
      <point x="561.5999999999999" y="1250.4" type="line"/>
      <point x="1268.4" y="1250.4" type="line"/>
      <point x="1185.8" y="1321.6" type="line"/>
      <point x="21.8" y="154.8" type="line"/>
      <point x="-24.6" y="0.0" type="line"/>
      <point x="878.2" y="0.0" type="line"/>
      <point x="904.0" y="-78.39999999999999" type="line"/>
      <point x="1030.4" y="-78.39999999999999" type="line"/>
      <point x="1264.6000000000001" y="450.4" type="line"/>
      <point x="1125.4" y="450.4" type="line"/>
      <point x="914.0" y="163.6" type="line"/>
      <point x="208.2" y="163.6" type="line"/>
      <point x="280.6" y="91.4" type="line"/>
      <point x="1445.6000000000001" y="1259.2" type="line"/>
    </contour>
  </outline>
</glyph>
<glyph name="bracketleft" format="2">
  <advance width="776.5999999999999"/>
  <unicode hex="005B"/>
  <outline>
    <contour>
      <point x="-10.200000000000001" y="-220.20000000000002" type="line"/>
      <point x="490.2" y="-220.20000000000002" type="line"/>
      <point x="533.8" y="-79.2" type="line"/>
      <point x="244.2" y="-79.2" type="line"/>
      <point x="672.5999999999999" y="1323.0" type="line"/>
      <point x="962.2" y="1323.0" type="line"/>
      <point x="1005.8" y="1464.0" type="line"/>
      <point x="504.59999999999997" y="1464.0" type="line"/>
    </contour>
  </outline>
</glyph>
<glyph name="backslash" format="2">
  <advance width="850.8"/>
  <unicode hex="005C"/>
  <outline>
    <contour>
      <point x="633.8" y="0.0" type="line"/>
      <point x="490.59999999999997" y="1414.0" type="line"/>
      <point x="330.59999999999997" y="1414.0" type="line"/>
      <point x="473.8" y="0.0" type="line"/>
    </contour>
  </outline>
</glyph>
<glyph name="asciicircum" format="2">
  <advance width="1200.0"/>
  <unicode hex="005E"/>
  <outline>
    <contour>
      <point x="824.2" y="1306.4" type="line"/>
      <point x="925.4000000000001" y="647.6" type="line"/>
      <point x="1071.4" y="647.6" type="line"/>
      <point x="950.1999999999999" y="1414.0" type="line"/>
      <point x="805.0" y="1414.0" type="line"/>
      <point x="215.8" y="647.6" type="line"/>
      <point x="392.2" y="647.6" type="line"/>
      <point x="895.6" y="1306.4" type="line"/>
    </contour>
  </outline>
</glyph>
<glyph name="a" format="2">
  <advance width="1358.2"/>
  <unicode hex="0061"/>
  <anchor x="875.2" y="1028.0" name="top"/>
  <anchor x="1193.6" y="0.0" name="right"/>
  <anchor x="502.0" y="0.0" name="bottom"/>
  <outline>
    <contour>
      <point x="768.4" y="105.8" type="line" smooth="yes"/>
      <point x="732.4" y="14.4"/>
      <point x="765.0" y="-22.0"/>
      <point x="867.8" y="-22.0" type="curve" smooth="yes"/>
      <point x="963.2" y="-22.0"/>
      <point x="1113.8000000000002" y="17.8"/>
      <point x="1327.1999999999998" y="193.4" type="curve"/>
      <point x="1281.0" y="269.2" type="line"/>
      <point x="1130.8" y="171.2"/>
      <point x="1001.4" y="146.2"/>
      <point x="891.2" y="156.2" type="curve"/>
      <point x="944.4" y="76.0" type="line"/>
      <point x="1282.2" y="1028.0" type="line"/>
      <point x="1110.2" y="1028.0" type="line"/>
      <point x="983.8" y="843.8" type="line"/>
      <point x="945.0" y="745.6" type="line" smooth="yes"/>
      <point x="835.2" y="459.8"/>
      <point x="567.4000000000001" y="141.79999999999998"/>
      <point x="419.0" y="141.79999999999998" type="curve" smooth="yes"/>
      <point x="335.2" y="141.79999999999998"/>
      <point x="282.79999999999995" y="184.6"/>
      <point x="282.79999999999995" y="271.8" type="curve" smooth="yes"/>
      <point x="282.79999999999995" y="502.40000000000003"/>
      <point x="519.2" y="908.5999999999999"/>
      <point x="782.8000000000001" y="908.5999999999999" type="curve" smooth="yes"/>
      <point x="866.4" y="908.5999999999999"/>
      <point x="937.6" y="872.4"/>
      <point x="990.8" y="760.6" type="curve"/>
      <point x="999.1999999999999" y="820.4" type="line"/>
      <point x="964.4" y="969.0"/>
      <point x="880.0" y="1050.0"/>
      <point x="738.6" y="1050.0" type="curve" smooth="yes"/>
      <point x="358.8" y="1050.0"/>
      <point x="40.199999999999996" y="570.2"/>
      <point x="40.199999999999996" y="235.4" type="curve" smooth="yes"/>
      <point x="40.199999999999996" y="66.2"/>
      <point x="159.39999999999998" y="-22.0"/>
      <point x="315.8" y="-22.0" type="curve" smooth="yes"/>
      <point x="467.0" y="-22.0"/>
      <point x="608.6" y="55.0"/>
      <point x="889.1999999999999" y="485.2" type="curve"/>
      <point x="916.0" y="485.2" type="line"/>
    </contour>
  </outline>
</glyph>
<glyph name="c" format="2">
  <advance width="1063.2"/>
  <unicode hex="0063"/>
  <anchor x="706.0" y="1028.0" name="top"/>
  <anchor x="801.4000000000001" y="0.0" name="right"/>
  <anchor x="439.8" y="0.0" name="bottom"/>
  <outline>
    <contour>
      <point x="694.4000000000001" y="926.0" type="curve" smooth="yes"/>
      <point x="727.8" y="926.0"/>
      <point x="766.4000000000001" y="890.8"/>
      <point x="810.4" y="828.8" type="curve" smooth="yes"/>
      <point x="854.4" y="766.8000000000001"/>
      <point x="887.8000000000001" y="730.0"/>
      <point x="912.2" y="730.0" type="curve" smooth="yes"/>
      <point x="981.4" y="730.0"/>
      <point x="1053.0" y="791.2"/>
      <point x="1053.0" y="869.4" type="curve" smooth="yes"/>
      <point x="1053.0" y="972.0"/>
      <point x="946.5999999999999" y="1050.0"/>
      <point x="740.6" y="1050.0" type="curve" smooth="yes"/>
      <point x="349.8" y="1050.0"/>
      <point x="79.2" y="735.8000000000001"/>
      <point x="79.2" y="342.8" type="curve" smooth="yes"/>
      <point x="79.2" y="94.39999999999999"/>
      <point x="206.20000000000002" y="-22.0"/>
      <point x="460.0" y="-22.0" type="curve" smooth="yes"/>
      <point x="698.6" y="-22.0"/>
      <point x="851.4" y="106.4"/>
      <point x="960.6" y="358.40000000000003" type="curve"/>
      <point x="857.0" y="358.40000000000003" type="line"/>
      <point x="767.5999999999999" y="208.79999999999998"/>
      <point x="661.1999999999999" y="152.6"/>
      <point x="530.0" y="152.6" type="curve" smooth="yes"/>
      <point x="385.4" y="152.6"/>
      <point x="317.4" y="209.6"/>
      <point x="317.4" y="393.20000000000005" type="curve" smooth="yes"/>
      <point x="317.4" y="700.8"/>
      <point x="473.2" y="926.0"/>
    </contour>
  </outline>
</glyph>
<glyph name="e" format="2">
  <advance width="1096.6"/>
  <unicode hex="0065"/>
  <anchor x="698.0" y="1028.0" name="top"/>
  <anchor x="839.2" y="0.0" name="right"/>
  <anchor x="446.0" y="0.0" name="bottom"/>
  <outline>
    <contour>
      <point x="700.1999999999999" y="921.8" type="curve" smooth="yes"/>
      <point x="794.0" y="921.8"/>
      <point x="841.8" y="869.8"/>
      <point x="841.8" y="787.8" type="curve" smooth="yes"/>
      <point x="841.8" y="677.6"/>
      <point x="827.2" y="645.8000000000001"/>
      <point x="283.8" y="555.8" type="curve"/>
      <point x="276.8" y="455.0" type="line"/>
      <point x="496.2" y="476.8"/>
      <point x="757.4000000000001" y="519.2"/>
      <point x="998.0" y="585.2" type="curve"/>
      <point x="1035.4" y="648.2"/>
      <point x="1056.8" y="725.8000000000001"/>
      <point x="1056.8" y="795.0" type="curve" smooth="yes"/>
      <point x="1056.8" y="937.1999999999999"/>
      <point x="970.4" y="1050.0"/>
      <point x="745.1999999999999" y="1050.0" type="curve" smooth="yes"/>
      <point x="355.8" y="1050.0"/>
      <point x="78.60000000000001" y="742.8000000000001"/>
      <point x="78.60000000000001" y="334.0" type="curve" smooth="yes"/>
      <point x="78.60000000000001" y="97.39999999999999"/>
      <point x="198.8" y="-22.0"/>
      <point x="448.8" y="-22.0" type="curve" smooth="yes"/>
      <point x="651.2" y="-22.0"/>
      <point x="830.0" y="71.4"/>
      <point x="964.4" y="351.6" type="curve"/>
      <point x="860.2" y="351.6" type="line"/>
      <point x="767.4" y="208.6"/>
      <point x="652.8" y="152.6"/>
      <point x="523.0" y="152.6" type="curve" smooth="yes"/>
      <point x="376.2" y="152.6"/>
      <point x="317.2" y="209.6"/>
      <point x="317.2" y="393.20000000000005" type="curve" smooth="yes"/>
      <point x="317.2" y="725.4"/>
      <point x="500.6" y="921.8"/>
    </contour>
  </outline>
</glyph>
<glyph name="r" format="2">
  <advance width="1093.2"/>
  <unicode hex="0072"/>
  <anchor x="702.8" y="1028.0" name="top"/>
  <anchor x="252.0" y="0.0" name="bottom"/>
  <outline>
    <contour>
      <point x="388.2" y="855.8000000000001" type="curve"/>
      <point x="128.6" y="0.0" type="line"/>
      <point x="374.6" y="0.0" type="line"/>
      <point x="452.40000000000003" y="244.6" type="line" smooth="yes"/>
      <point x="553.4" y="562.0"/>
      <point x="741.6" y="835.0"/>
      <point x="865.6" y="835.0" type="curve" smooth="yes"/>
      <point x="880.8000000000001" y="835.0"/>
      <point x="914.2" y="807.8000000000001"/>
      <point x="945.1999999999999" y="780.0" type="curve" smooth="yes"/>
      <point x="976.1999999999999" y="752.2"/>
      <point x="1006.6" y="723.0"/>
      <point x="1013.0" y="723.0" type="curve" smooth="yes"/>
      <point x="1058.1999999999998" y="723.0"/>
      <point x="1170.8" y="793.8"/>
      <point x="1170.8" y="918.0" type="curve" smooth="yes"/>
      <point x="1170.8" y="990.5999999999999"/>
      <point x="1121.8" y="1050.0"/>
      <point x="1006.4" y="1050.0" type="curve" smooth="yes"/>
      <point x="838.0" y="1050.0"/>
      <point x="688.6" y="922.0"/>
      <point x="481.2" y="519.0" type="curve"/>
      <point x="443.4" y="519.0" type="line"/>
      <point x="614.6" y="1044.6" type="line"/>
      <point x="571.0" y="1048.2"/>
      <point x="535.8" y="1049.2"/>
      <point x="488.0" y="1049.2" type="curve" smooth="yes"/>
      <point x="268.0" y="1049.2"/>
      <point x="129.79999999999998" y="979.5999999999999"/>
      <point x="67.39999999999999" y="717.8000000000001" type="curve"/>
      <point x="84.80000000000001" y="712.2" type="line"/>
      <point x="164.60000000000002" y="821.1999999999999"/>
      <point x="247.79999999999998" y="855.8000000000001"/>
      <point x="378.0" y="855.8000000000001" type="curve" smooth="yes"/>
      <point x="381.59999999999997" y="855.8000000000001"/>
      <point x="385.79999999999995" y="855.8000000000001"/>
    </contour>
  </outline>
</glyph>
<glyph name="w" format="2">
  <advance width="1802.6000000000001"/>
  <unicode hex="0077"/>
  <anchor x="1104.2" y="1028.0" name="top"/>
  <anchor x="797.0" y="0.0" name="bottom"/>
  <outline>
    <contour>
      <point x="1011.0" y="1028.0" type="line"/>
      <point x="879.6" y="579.1999999999999" type="line" smooth="yes"/>
      <point x="781.6" y="245.2"/>
      <point x="636.4" y="145.0"/>
      <point x="513.8" y="145.0" type="curve" smooth="yes"/>
      <point x="445.2" y="145.0"/>
      <point x="409.59999999999997" y="166.4"/>
      <point x="409.59999999999997" y="222.6" type="curve" smooth="yes"/>
      <point x="409.59999999999997" y="245.60000000000002"/>
      <point x="415.4" y="274.6"/>
      <point x="427.4" y="310.0" type="curve" smooth="yes"/>
      <point x="678.8000000000001" y="1044.6" type="line"/>
      <point x="623.1999999999999" y="1048.4"/>
      <point x="582.6" y="1050.0"/>
      <point x="531.4" y="1050.0" type="curve" smooth="yes"/>
      <point x="267.8" y="1050.0"/>
      <point x="141.0" y="979.2"/>
      <point x="69.60000000000001" y="717.8" type="curve"/>
      <point x="87.0" y="712.2" type="line"/>
      <point x="166.8" y="821.2"/>
      <point x="250.0" y="855.8000000000001"/>
      <point x="380.20000000000005" y="855.8000000000001" type="curve" smooth="yes"/>
      <point x="385.40000000000003" y="855.8000000000001"/>
      <point x="385.6" y="855.8000000000001"/>
      <point x="390.40000000000003" y="855.8000000000001" type="curve"/>
      <point x="212.6" y="343.0" type="line" smooth="yes"/>
      <point x="193.4" y="287.20000000000005"/>
      <point x="183.8" y="236.0"/>
      <point x="183.8" y="191.2" type="curve" smooth="yes"/>
      <point x="183.8" y="56.800000000000004"/>
      <point x="269.2" y="-22.0"/>
      <point x="423.6" y="-22.0" type="curve" smooth="yes"/>
      <point x="612.8" y="-22.0"/>
      <point x="771.2" y="98.39999999999999"/>
      <point x="927.2" y="466.0" type="curve"/>
      <point x="960.8000000000001" y="466.0" type="line"/>
      <point x="906.8" y="291.40000000000003" type="line" smooth="yes"/>
      <point x="890.0" y="238.4"/>
      <point x="882.0" y="192.4"/>
      <point x="882.0" y="154.6" type="curve" smooth="yes"/>
      <point x="882.0" y="31.0"/>
      <point x="958.6" y="-22.0"/>
      <point x="1096.8" y="-22.0" type="curve" smooth="yes"/>
      <point x="1408.2" y="-22.0"/>
      <point x="1731.6" y="333.8"/>
      <point x="1731.6" y="823.4000000000001" type="curve" smooth="yes"/>
      <point x="1731.6" y="979.4"/>
      <point x="1664.3999999999999" y="1050.0"/>
      <point x="1563.6" y="1050.0" type="curve" smooth="yes"/>
      <point x="1464.0" y="1050.0"/>
      <point x="1388.2" y="981.0"/>
      <point x="1388.2" y="878.8000000000001" type="curve" smooth="yes"/>
      <point x="1388.2" y="822.8"/>
      <point x="1557.8" y="818.0"/>
      <point x="1557.8" y="658.1999999999999" type="curve" smooth="yes"/>
      <point x="1557.8" y="391.6"/>
      <point x="1332.2" y="145.0"/>
      <point x="1129.8" y="145.0" type="curve" smooth="yes"/>
      <point x="1058.3999999999999" y="145.0"/>
      <point x="1019.2" y="170.60000000000002"/>
      <point x="1019.2" y="237.0" type="curve" smooth="yes"/>
      <point x="1019.2" y="260.8"/>
      <point x="1024.8" y="290.59999999999997"/>
      <point x="1034.8" y="326.4" type="curve" smooth="yes"/>
      <point x="1239.6" y="1028.0" type="line"/>
    </contour>
  </outline>
</glyph>
<glyph name="braceleft" format="2">
  <advance width="759.8000000000001"/>
  <unicode hex="007B"/>
  <outline>
    <contour>
      <point x="82.4" y="558.8" type="line"/>
      <point x="153.2" y="557.4" type="line" smooth="yes"/>
      <point x="226.0" y="556.0"/>
      <point x="258.59999999999997" y="530.6"/>
      <point x="258.59999999999997" y="476.4" type="curve" smooth="yes"/>
      <point x="258.59999999999997" y="351.2"/>
      <point x="107.6" y="136.39999999999998"/>
      <point x="107.6" y="-14.600000000000001" type="curve" smooth="yes"/>
      <point x="107.6" y="-124.6"/>
      <point x="193.4" y="-221.39999999999998"/>
      <point x="346.40000000000003" y="-236.0" type="curve" smooth="yes"/>
      <point x="440.2" y="-245.60000000000002" type="line"/>
      <point x="488.6" y="-114.19999999999999" type="line"/>
      <point x="413.0" y="-103.6" type="line" smooth="yes"/>
      <point x="346.2" y="-95.8"/>
      <point x="316.2" y="-67.19999999999999"/>
      <point x="316.2" y="-8.0" type="curve" smooth="yes"/>
      <point x="316.2" y="110.6"/>
      <point x="444.0" y="361.6"/>
      <point x="444.0" y="475.0" type="curve" smooth="yes"/>
      <point x="444.0" y="560.0"/>
      <point x="402.6" y="617.6"/>
      <point x="263.6" y="644.6" type="curve"/>
      <point x="248.39999999999998" y="595.0" type="line"/>
      <point x="443.0" y="615.0"/>
      <point x="540.5999999999999" y="709.1999999999999"/>
      <point x="581.4" y="842.2" type="curve" smooth="yes"/>
      <point x="616.8" y="958.0"/>
      <point x="619.8" y="1085.4"/>
      <point x="652.1999999999999" y="1187.8000000000002" type="curve" smooth="yes"/>
      <point x="681.1999999999999" y="1282.3999999999999"/>
      <point x="733.0" y="1333.6"/>
      <point x="850.8000000000001" y="1348.0" type="curve" smooth="yes"/>
      <point x="933.6" y="1358.6" type="line"/>
      <point x="956.2" y="1489.2" type="line"/>
      <point x="815.6" y="1478.2" type="line" smooth="yes"/>
      <point x="597.6" y="1460.6000000000001"/>
      <point x="474.0" y="1346.0"/>
      <point x="433.59999999999997" y="1214.2" type="curve" smooth="yes"/>
      <point x="393.0" y="1081.0"/>
      <point x="407.6" y="947.6"/>
      <point x="372.8" y="832.4" type="curve" smooth="yes"/>
      <point x="340.59999999999997" y="727.4"/>
      <point x="289.2" y="689.4"/>
      <point x="191.79999999999998" y="686.2" type="curve" smooth="yes"/>
      <point x="121.4" y="685.6" type="line"/>
    </contour>
  </outline>
</glyph>
<glyph name="brokenbar" format="2">
  <advance width="598.2"/>
  <unicode hex="00A6"/>
  <outline>
    <contour>
      <point x="453.2" y="753.8" type="line"/>
      <point x="686.8" y="1535.0" type="line"/>
      <point x="520.4" y="1535.0" type="line"/>
      <point x="286.8" y="753.8" type="line"/>
    </contour>
    <contour>
      <point x="-77.0" y="-465.0" type="line"/>
      <point x="88.6" y="-465.0" type="line"/>
      <point x="323.0" y="316.2" type="line"/>
      <point x="156.60000000000002" y="316.2" type="line"/>
    </contour>
  </outline>
</glyph>
<glyph name="section" format="2">
  <advance width="1273.6"/>
  <unicode hex="00A7"/>
  <outline>
    <contour>
      <point x="689.8000000000001" y="798.0" type="curve"/>
      <point x="595.1999999999999" y="841.0" type="line"/>
      <point x="277.4" y="840.8"/>
      <point x="110.4" y="720.2"/>
      <point x="110.4" y="513.4" type="curve" smooth="yes"/>
      <point x="110.4" y="145.79999999999998"/>
      <point x="708.1999999999999" y="297.59999999999997"/>
      <point x="708.1999999999999" y="68.80000000000001" type="curve" smooth="yes"/>
      <point x="708.1999999999999" y="-15.799999999999999"/>
      <point x="637.0" y="-95.2"/>
      <point x="442.2" y="-95.2" type="curve" smooth="yes"/>
      <point x="260.4" y="-95.2"/>
      <point x="185.8" y="54.800000000000004"/>
      <point x="160.2" y="54.800000000000004" type="curve" smooth="yes"/>
      <point x="87.2" y="54.800000000000004"/>
      <point x="22.4" y="4.000000000000001"/>
      <point x="21.6" y="-82.2" type="curve" smooth="yes"/>
      <point x="20.8" y="-161.8"/>
      <point x="71.2" y="-243.8"/>
      <point x="370.0" y="-243.8" type="curve" smooth="yes"/>
      <point x="765.6" y="-243.8"/>
      <point x="947.8" y="-73.0"/>
      <point x="947.8" y="138.8" type="curve" smooth="yes"/>
      <point x="947.8" y="524.1999999999999"/>
      <point x="350.6" y="343.40000000000003"/>
      <point x="350.6" y="599.0" type="curve" smooth="yes"/>
      <point x="350.6" y="716.0"/>
      <point x="450.0" y="792.2"/>
    </contour>
    <contour>
      <point x="971.0" y="593.1999999999999" type="curve" smooth="yes"/>
      <point x="971.0" y="476.20000000000005"/>
      <point x="871.5999999999999" y="400.0"/>
      <point x="631.8000000000001" y="394.20000000000005" type="curve"/>
      <point x="726.4" y="351.20000000000005" type="line"/>
      <point x="1044.2" y="351.4"/>
      <point x="1211.2" y="472.0"/>
      <point x="1211.2" y="678.8000000000001" type="curve" smooth="yes"/>
      <point x="1211.2" y="1046.3999999999999"/>
      <point x="613.4000000000001" y="894.6"/>
      <point x="613.4000000000001" y="1123.4" type="curve" smooth="yes"/>
      <point x="613.4000000000001" y="1208.0"/>
      <point x="684.6" y="1287.3999999999999"/>
      <point x="879.4000000000001" y="1287.3999999999999" type="curve" smooth="yes"/>
      <point x="1061.2" y="1287.3999999999999"/>
      <point x="1135.8" y="1137.4"/>
      <point x="1161.4" y="1137.4" type="curve" smooth="yes"/>
      <point x="1234.4" y="1137.4"/>
      <point x="1299.2" y="1188.2"/>
      <point x="1300.0" y="1274.3999999999999" type="curve" smooth="yes"/>
      <point x="1300.8000000000002" y="1354.0"/>
      <point x="1250.4" y="1436.0"/>
      <point x="951.6" y="1436.0" type="curve" smooth="yes"/>
      <point x="556.0" y="1436.0"/>
      <point x="373.8" y="1265.2"/>
      <point x="373.8" y="1053.3999999999999" type="curve" smooth="yes"/>
      <point x="373.8" y="668.0"/>
      <point x="971.0" y="848.8"/>
    </contour>
  </outline>
</glyph>
<glyph name="ordfeminine" format="2">
  <advance width="1067.4"/>
  <unicode hex="00AA"/>
  <outline>
    <contour>
      <point x="193.20000000000002" y="490.40000000000003" type="line"/>
      <point x="885.1999999999999" y="490.40000000000003" type="line"/>
      <point x="931.0" y="640.0" type="line"/>
      <point x="239.2" y="640.0" type="line"/>
    </contour>
    <contour>
      <point x="729.8000000000001" y="864.0" type="line" smooth="yes"/>
      <point x="701.1999999999999" y="783.1999999999999"/>
      <point x="727.6" y="761.0"/>
      <point x="797.2" y="761.0" type="curve" smooth="yes"/>
      <point x="871.8000000000001" y="761.0"/>
      <point x="950.4" y="779.1999999999999"/>
      <point x="1086.8" y="867.1999999999999" type="curve"/>
      <point x="1068.0" y="917.0" type="line"/>
      <point x="964.4" y="872.8000000000001"/>
      <point x="903.8" y="866.1999999999999"/>
      <point x="816.2" y="872.4" type="curve"/>
      <point x="889.0" y="804.0" type="line"/>
      <point x="1099.8" y="1414.0" type="line"/>
      <point x="919.8000000000001" y="1414.0" type="line"/>
      <point x="855.4" y="1303.2" type="line"/>
      <point x="811.5999999999999" y="1187.8" type="line" smooth="yes"/>
      <point x="756.4" y="1042.0"/>
      <point x="640.0" y="887.1999999999999"/>
      <point x="548.2" y="887.1999999999999" type="curve" smooth="yes"/>
      <point x="494.8" y="887.1999999999999"/>
      <point x="472.8" y="910.6"/>
      <point x="472.8" y="961.0" type="curve" smooth="yes"/>
      <point x="472.8" y="1094.6"/>
      <point x="616.4" y="1327.4"/>
      <point x="743.8" y="1327.4" type="curve" smooth="yes"/>
      <point x="792.1999999999999" y="1327.4"/>
      <point x="831.4" y="1306.0"/>
      <point x="860.2" y="1242.2" type="curve"/>
      <point x="878.2" y="1267.8000000000002" type="line"/>
      <point x="846.6" y="1373.4"/>
      <point x="792.1999999999999" y="1429.8000000000002"/>
      <point x="700.4" y="1429.8000000000002" type="curve" smooth="yes"/>
      <point x="470.2" y="1429.8000000000002"/>
      <point x="265.59999999999997" y="1145.6000000000001"/>
      <point x="265.59999999999997" y="928.8000000000001" type="curve" smooth="yes"/>
      <point x="265.59999999999997" y="819.6"/>
      <point x="335.6" y="761.0"/>
      <point x="442.4" y="761.0" type="curve" smooth="yes"/>
      <point x="549.4" y="761.0"/>
      <point x="644.0" y="808.4"/>
      <point x="782.8" y="1038.3999999999999" type="curve"/>
      <point x="796.4" y="1038.3999999999999" type="line"/>
    </contour>
  </outline>
</glyph>
<glyph name="logicalnot" format="2">
  <advance width="1200.0"/>
  <unicode hex="00AC"/>
  <outline>
    <contour>
      <point x="242.4" y="787.0" type="line"/>
      <point x="195.6" y="633.4" type="line"/>
      <point x="904.4" y="633.4" type="line"/>
      <point x="782.5999999999999" y="237.0" type="line"/>
      <point x="931.2" y="237.0" type="line"/>
      <point x="1098.8" y="787.0" type="line"/>
    </contour>
  </outline>
</glyph>
<glyph name="registered" format="2">
  <advance width="1218.2"/>
  <unicode hex="00AE"/>
  <outline>
    <contour>
      <point x="965.0" y="845.6" type="line"/>
      <point x="929.8" y="845.6"/>
      <point x="925.4" y="847.4000000000001"/>
      <point x="924.4" y="885.4000000000001" type="curve" smooth="yes"/>
      <point x="922.8" y="931.4" type="line" smooth="yes"/>
      <point x="921.8000000000001" y="978.4"/>
      <point x="908.4" y="1001.0"/>
      <point x="851.8" y="1005.0" type="curve"/>
      <point x="849.4" y="1003.2" type="line"/>
      <point x="954.6" y="1010.4"/>
      <point x="1002.8000000000001" y="1061.6"/>
      <point x="1002.8000000000001" y="1136.0" type="curve" smooth="yes"/>
      <point x="1002.8000000000001" y="1196.4"/>
      <point x="963.2" y="1225.8"/>
      <point x="865.8" y="1225.8" type="curve" smooth="yes"/>
      <point x="695.6" y="1225.8" type="line"/>
      <point x="676.8000000000001" y="1150.0" type="line"/>
      <point x="814.6" y="1150.0" type="line" smooth="yes"/>
      <point x="857.6" y="1150.0"/>
      <point x="871.4000000000001" y="1139.3999999999999"/>
      <point x="871.4000000000001" y="1114.2" type="curve" smooth="yes"/>
      <point x="871.4000000000001" y="1064.6"/>
      <point x="844.4" y="1033.3999999999999"/>
      <point x="784.8" y="1033.3999999999999" type="curve" smooth="yes"/>
      <point x="640.6" y="1033.3999999999999" type="line"/>
      <point x="627.4" y="974.8" type="line"/>
      <point x="751.8" y="974.8" type="line" smooth="yes"/>
      <point x="795.8" y="974.8"/>
      <point x="799.2" y="968.6"/>
      <point x="799.0" y="927.8000000000001" type="curve" smooth="yes"/>
      <point x="797.4" y="857.1999999999999" type="line" smooth="yes"/>
      <point x="796.0526315789473" y="794.5263157894736"/>
      <point x="823.0" y="782.2"/>
      <point x="949.2" y="794.8000000000001" type="curve"/>
    </contour>
    <contour>
      <point x="771.0" y="1225.8" type="line"/>
      <point x="585.4" y="1225.8" type="line"/>
      <point x="573.0" y="1186.3999999999999" type="line"/>
      <point x="625.6" y="1175.4" type="line"/>
      <point x="525.4" y="845.4" type="line"/>
      <point x="465.0" y="833.2" type="line"/>
      <point x="453.6" y="794.8" type="line"/>
      <point x="686.6" y="794.8" type="line"/>
      <point x="698.0" y="833.2" type="line"/>
      <point x="655.0" y="845.4" type="line"/>
    </contour>
    <contour>
      <point x="717.4" y="645.6" type="curve" smooth="yes"/>
      <point x="474.8" y="645.6"/>
      <point x="369.0" y="741.8"/>
      <point x="369.0" y="907.0" type="curve" smooth="yes"/>
      <point x="369.0" y="1127.2"/>
      <point x="485.2" y="1347.2"/>
      <point x="786.6" y="1347.2" type="curve" smooth="yes"/>
      <point x="1029.2" y="1347.2"/>
      <point x="1135.0" y="1250.8"/>
      <point x="1135.0" y="1085.8" type="curve" smooth="yes"/>
      <point x="1135.0" y="865.4"/>
      <point x="1018.8000000000001" y="645.6"/>
    </contour>
    <contour>
      <point x="798.4" y="1436.0" type="curve" smooth="yes"/>
      <point x="443.40000000000003" y="1436.0"/>
      <point x="266.59999999999997" y="1182.4"/>
      <point x="266.59999999999997" y="900.4" type="curve" smooth="yes"/>
      <point x="266.59999999999997" y="679.8000000000001"/>
      <point x="418.6" y="556.8"/>
      <point x="705.5999999999999" y="556.8" type="curve" smooth="yes"/>
      <point x="1060.4" y="556.8"/>
      <point x="1237.4" y="810.4"/>
      <point x="1237.4" y="1091.6000000000001" type="curve" smooth="yes"/>
      <point x="1237.4" y="1312.2"/>
      <point x="1085.3999999999999" y="1436.0"/>
    </contour>
  </outline>
</glyph>
<glyph name="uni00B2" format="2">
  <advance width="806.4000000000001"/>
  <unicode hex="00B2"/>
  <outline>
    <contour>
      <point x="600.8000000000001" y="745.1999999999999" type="line"/>
      <point x="783.6" y="829.8000000000001" type="line"/>
      <point x="342.40000000000003" y="829.8000000000001" type="line"/>
      <point x="337.6" y="777.2" type="line"/>
      <point x="581.2" y="919.8000000000001" type="line" smooth="yes"/>
      <point x="824.4" y="1057.0"/>
      <point x="866.0" y="1143.2"/>
      <point x="866.0" y="1252.8" type="curve" smooth="yes"/>
      <point x="866.0" y="1370.8"/>
      <point x="770.4" y="1433.2"/>
      <point x="619.4" y="1433.2" type="curve" smooth="yes"/>
      <point x="439.8" y="1433.2"/>
      <point x="339.20000000000005" y="1361.0"/>
      <point x="265.2" y="1171.8" type="curve"/>
      <point x="352.2" y="1130.8" type="line"/>
      <point x="400.8" y="1237.8"/>
      <point x="451.59999999999997" y="1284.6"/>
      <point x="541.4" y="1284.6" type="curve" smooth="yes"/>
      <point x="616.0" y="1284.6"/>
      <point x="658.6" y="1248.6"/>
      <point x="658.6" y="1190.0" type="curve" smooth="yes"/>
      <point x="658.6" y="1124.6000000000001"/>
      <point x="627.6" y="1076.0"/>
      <point x="449.4" y="951.6" type="curve" smooth="yes"/>
      <point x="211.6" y="776.0" type="line"/>
      <point x="175.8" y="662.0" type="line"/>
      <point x="642.4000000000001" y="662.0" type="line"/>
      <point x="659.4" y="626.5999999999999" type="line"/>
      <point x="717.5999999999999" y="626.5999999999999" type="line"/>
      <point x="863.1999999999999" y="922.6" type="line"/>
      <point x="774.1999999999999" y="922.6" type="line"/>
    </contour>
  </outline>
</glyph>
<glyph name="uni00B5" format="2">
  <advance width="1455.0"/>
  <unicode hex="00B5"/>
  <outline>
    <contour>
      <point x="895.6" y="636.6" type="line"/>
      <point x="745.0" y="235.2"/>
      <point x="595.6" y="161.2"/>
      <point x="492.0" y="161.2" type="curve" smooth="yes"/>
      <point x="423.79999999999995" y="161.2"/>
      <point x="395.0" y="192.4"/>
      <point x="395.0" y="237.79999999999998" type="curve" smooth="yes"/>
      <point x="395.0" y="265.2"/>
      <point x="404.4" y="301.79999999999995"/>
      <point x="422.6" y="359.0" type="curve" smooth="yes"/>
      <point x="631.2" y="1028.0" type="line"/>
      <point x="385.0" y="1028.0" type="line"/>
      <point x="-68.8" y="-456.4" type="line"/>
      <point x="-25.0" y="-456.4" type="line"/>
      <point x="169.0" y="-439.20000000000005" type="line"/>
      <point x="229.0" y="147.79999999999998" type="line"/>
      <point x="205.39999999999998" y="161.0" type="line"/>
      <point x="207.0" y="54.4"/>
      <point x="271.0" y="-22.0"/>
      <point x="411.2" y="-22.0" type="curve" smooth="yes"/>
      <point x="584.6" y="-22.0"/>
      <point x="679.0" y="36.2"/>
      <point x="911.8" y="468.0" type="curve"/>
      <point x="944.4" y="468.0" type="line"/>
      <point x="819.4" y="105.8" type="line" smooth="yes"/>
      <point x="788.4" y="16.2"/>
      <point x="819.1999999999999" y="-22.0"/>
      <point x="905.6" y="-22.0" type="curve" smooth="yes"/>
      <point x="992.4000000000001" y="-22.0"/>
      <point x="1146.0" y="20.0"/>
      <point x="1360.8" y="194.79999999999998" type="curve"/>
      <point x="1313.8" y="272.0" type="line"/>
      <point x="1160.0" y="173.39999999999998"/>
      <point x="1029.8" y="146.2"/>
      <point x="921.0" y="156.6" type="curve"/>
      <point x="979.8" y="73.8" type="line"/>
      <point x="1291.6" y="1028.0" type="line"/>
      <point x="1045.6000000000001" y="1028.0" type="line"/>
    </contour>
  </outline>
</glyph>
<glyph name="uni00B9" format="2">
  <advance width="681.4"/>
  <unicode hex="00B9"/>
  <outline>
    <contour>
      <point x="348.59999999999997" y="767.1999999999999" type="line"/>
      <point x="206.20000000000002" y="735.4" type="line"/>
      <point x="184.6" y="662.0" type="line"/>
      <point x="661.0" y="662.0" type="line"/>
      <point x="682.6" y="735.4" type="line"/>
      <point x="553.4" y="767.1999999999999" type="line"/>
      <point x="751.0" y="1414.0" type="line"/>
      <point x="609.4" y="1414.0" type="line"/>
      <point x="269.8" y="1274.2" type="line"/>
      <point x="293.59999999999997" y="1179.6000000000001" type="line"/>
      <point x="570.0" y="1255.8" type="line"/>
      <point x="526.4000000000001" y="1348.8" type="line"/>
    </contour>
  </outline>
</glyph>
<glyph name="Ccedilla" format="2">
  <advance width="1533.0"/>
  <unicode hex="00C7"/>
  <outline>
    <contour>
      <point x="1215.4" y="215.2" type="line"/>
      <point x="1101.8000000000002" y="174.8"/>
      <point x="976.0" y="147.0"/>
      <point x="867.2" y="147.0" type="curve" smooth="yes"/>
      <point x="595.0" y="147.0"/>
      <point x="439.4" y="281.6"/>
      <point x="439.4" y="562.1999999999999" type="curve" smooth="yes"/>
      <point x="439.4" y="960.1999999999999"/>
      <point x="644.5999999999999" y="1258.8000000000002"/>
      <point x="1107.0" y="1258.8000000000002" type="curve" smooth="yes"/>
      <point x="1220.4" y="1258.8000000000002"/>
      <point x="1313.8000000000002" y="1241.6000000000001"/>
      <point x="1399.0" y="1187.4" type="curve"/>
      <point x="1360.2" y="1288.8" type="line"/>
      <point x="1354.8000000000002" y="947.1999999999999" type="line"/>
      <point x="1511.4" y="947.1999999999999" type="line"/>
      <point x="1651.2" y="1489.6" type="line"/>
      <point x="1532.4" y="1489.6" type="line"/>
      <point x="1399.0" y="1368.8000000000002" type="line"/>
      <point x="1497.6000000000001" y="1374.2" type="line"/>
      <point x="1399.4" y="1411.0"/>
      <point x="1283.6" y="1436.0"/>
      <point x="1141.8" y="1436.0" type="curve" smooth="yes"/>
      <point x="500.8" y="1436.0"/>
      <point x="167.20000000000002" y="1058.1999999999998"/>
      <point x="167.20000000000002" y="547.1999999999999" type="curve" smooth="yes"/>
      <point x="167.20000000000002" y="198.0"/>
      <point x="365.0" y="-22.0"/>
      <point x="798.4" y="-22.0" type="curve" smooth="yes"/>
      <point x="985.0" y="-22.0"/>
      <point x="1138.8000000000002" y="7.0"/>
      <point x="1258.2" y="51.2" type="curve"/>
      <point x="1421.2" y="448.2" type="line"/>
      <point x="1265.2" y="448.2" type="line"/>
      <point x="999.6" y="90.2" type="line"/>
    </contour>
    <contour>
      <point x="576.8000000000001" y="-390.4" type="curve" smooth="yes"/>
      <point x="508.79999999999995" y="-390.4"/>
      <point x="473.2" y="-338.40000000000003"/>
      <point x="456.4" y="-338.40000000000003" type="curve" smooth="yes"/>
      <point x="425.6" y="-338.40000000000003"/>
      <point x="403.40000000000003" y="-365.59999999999997"/>
      <point x="403.40000000000003" y="-398.2" type="curve" smooth="yes"/>
      <point x="403.40000000000003" y="-441.4"/>
      <point x="437.4" y="-465.0"/>
      <point x="542.6" y="-465.0" type="curve"/>
      <point x="755.8" y="-465.0"/>
      <point x="846.4" y="-371.2"/>
      <point x="846.4" y="-250.0" type="curve" smooth="yes"/>
      <point x="846.4" y="-180.6"/>
      <point x="797.8000000000001" y="-127.8"/>
      <point x="643.8" y="-98.6" type="curve"/>
      <point x="635.0" y="-172.4" type="line"/>
      <point x="843.1999999999999" y="25.0" type="line"/>
      <point x="736.8000000000001" y="25.0" type="line"/>
      <point x="522.2" y="-183.2" type="line"/>
      <point x="514.6" y="-208.2" type="line"/>
      <point x="658.0" y="-229.6"/>
      <point x="697.2" y="-256.4"/>
      <point x="697.2" y="-296.6" type="curve" smooth="yes"/>
      <point x="697.2" y="-353.0"/>
      <point x="655.6" y="-390.4"/>
    </contour>
  </outline>
</glyph>
<glyph name="Oslash" format="2">
  <advance width="1697.0"/>
  <unicode hex="00D8"/>
  <anchor x="1101.4" y="1414.0" name="UCtop"/>
  <anchor x="684.8" y="0.0" name="bottom"/>
  <outline>
    <contour>
      <point x="1853.6" y="1414.0" type="line"/>
      <point x="1624.2" y="1414.0" type="line"/>
      <point x="1427.3999999999999" y="1248.4" type="line"/>
      <point x="1360.8000000000002" y="1192.0" type="line"/>
      <point x="368.8" y="334.6" type="line"/>
      <point x="286.4" y="275.59999999999997" type="line"/>
      <point x="-40.800000000000004" y="0.0" type="line"/>
      <point x="188.60000000000002" y="0.0" type="line"/>
      <point x="385.4" y="165.6" type="line"/>
      <point x="452.0" y="222.0" type="line"/>
      <point x="1444.0" y="1079.3999999999999" type="line"/>
      <point x="1526.4" y="1138.4" type="line"/>
    </contour>
    <contour>
      <point x="435.2" y="511.0" type="curve" smooth="yes"/>
      <point x="435.2" y="899.2"/>
      <point x="655.0" y="1256.3999999999999"/>
      <point x="1028.6000000000001" y="1256.3999999999999" type="curve" smooth="yes"/>
      <point x="1267.8" y="1256.3999999999999"/>
      <point x="1377.6" y="1123.2"/>
      <point x="1377.6" y="903.0" type="curve" smooth="yes"/>
      <point x="1377.6" y="514.8"/>
      <point x="1157.8" y="157.6"/>
      <point x="784.2" y="157.6" type="curve" smooth="yes"/>
      <point x="545.0" y="157.6"/>
      <point x="435.2" y="290.8"/>
    </contour>
    <contour>
      <point x="1643.6000000000001" y="894.8000000000001" type="curve" smooth="yes"/>
      <point x="1643.6000000000001" y="1226.8"/>
      <point x="1436.6" y="1436.0"/>
      <point x="1036.8" y="1436.0" type="curve" smooth="yes"/>
      <point x="529.4" y="1436.0"/>
      <point x="169.2" y="1011.0"/>
      <point x="169.2" y="519.2" type="curve" smooth="yes"/>
      <point x="169.2" y="187.20000000000002"/>
      <point x="376.20000000000005" y="-22.0"/>
      <point x="776.0" y="-22.0" type="curve" smooth="yes"/>
      <point x="1283.4" y="-22.0"/>
      <point x="1643.6000000000001" y="403.0"/>
    </contour>
  </outline>
</glyph>
<glyph name="ae" format="2">
  <advance width="1883.6"/>
  <unicode hex="00E6"/>
  <anchor x="1105.2" y="1028.0" name="top"/>
  <anchor x="776.0" y="0.0" name="bottom"/>
  <outline>
    <contour>
      <point x="1207.8" y="880.6" type="line"/>
      <point x="1234.2" y="1028.0" type="line"/>
      <point x="1086.2" y="1028.0" type="line"/>
      <point x="983.8" y="843.8" type="line"/>
      <point x="945.0" y="745.6" type="line" smooth="yes"/>
      <point x="835.2" y="459.8"/>
      <point x="567.4000000000001" y="141.79999999999998"/>
      <point x="419.0" y="141.79999999999998" type="curve" smooth="yes"/>
      <point x="335.2" y="141.79999999999998"/>
      <point x="282.79999999999995" y="184.6"/>
      <point x="282.79999999999995" y="271.8" type="curve" smooth="yes"/>
      <point x="282.79999999999995" y="502.40000000000003"/>
      <point x="519.2" y="908.5999999999999"/>
      <point x="782.8000000000001" y="908.5999999999999" type="curve" smooth="yes"/>
      <point x="866.4" y="908.5999999999999"/>
      <point x="937.6" y="872.4"/>
      <point x="990.8" y="760.6" type="curve"/>
      <point x="999.1999999999999" y="820.4" type="line"/>
      <point x="964.4" y="969.0"/>
      <point x="880.0" y="1050.0"/>
      <point x="738.6" y="1050.0" type="curve" smooth="yes"/>
      <point x="358.8" y="1050.0"/>
      <point x="40.199999999999996" y="570.2"/>
      <point x="40.199999999999996" y="235.4" type="curve" smooth="yes"/>
      <point x="40.199999999999996" y="66.2"/>
      <point x="159.39999999999998" y="-22.0"/>
      <point x="315.8" y="-22.0" type="curve" smooth="yes"/>
      <point x="467.0" y="-22.0"/>
      <point x="608.6" y="55.0"/>
      <point x="889.1999999999999" y="485.2" type="curve"/>
      <point x="916.0" y="485.2" type="line"/>
      <point x="825.8000000000001" y="152.79999999999998"/>
      <point x="945.0" y="-22.0"/>
      <point x="1235.8" y="-22.0" type="curve" smooth="yes"/>
      <point x="1438.2" y="-22.0"/>
      <point x="1617.0" y="71.4"/>
      <point x="1751.3999999999999" y="351.6" type="curve"/>
      <point x="1647.1999999999998" y="351.6" type="line"/>
      <point x="1554.3999999999999" y="208.6"/>
      <point x="1439.8000000000002" y="152.6"/>
      <point x="1310.0" y="152.6" type="curve" smooth="yes"/>
      <point x="1163.2" y="152.6"/>
      <point x="1104.2" y="209.6"/>
      <point x="1104.2" y="393.20000000000005" type="curve" smooth="yes"/>
      <point x="1104.2" y="725.4"/>
      <point x="1287.6000000000001" y="921.8"/>
      <point x="1487.2" y="921.8" type="curve" smooth="yes"/>
      <point x="1581.0" y="921.8"/>
      <point x="1628.8000000000002" y="869.8"/>
      <point x="1628.8000000000002" y="787.8" type="curve" smooth="yes"/>
      <point x="1628.8000000000002" y="677.6"/>
      <point x="1614.2" y="645.8000000000001"/>
      <point x="1070.8" y="555.8" type="curve"/>
      <point x="1063.8" y="455.0" type="line"/>
      <point x="1283.2" y="476.79999999999995"/>
      <point x="1544.4" y="519.1999999999999"/>
      <point x="1785.0" y="585.2" type="curve"/>
      <point x="1822.4" y="648.1999999999999"/>
      <point x="1843.8" y="725.8"/>
      <point x="1843.8" y="795.0" type="curve" smooth="yes"/>
      <point x="1843.8" y="937.2"/>
      <point x="1770.0" y="1050.0"/>
      <point x="1576.1999999999998" y="1050.0" type="curve" smooth="yes"/>
      <point x="1417.6000000000001" y="1050.0"/>
      <point x="1289.0" y="985.8000000000001"/>
      <point x="1188.0" y="880.6" type="curve"/>
    </contour>
  </outline>
</glyph>
<glyph name="ccedilla" format="2">
  <advance width="1064.0"/>
  <unicode hex="00E7"/>
  <outline>
    <contour>
      <point x="239.20000000000002" y="-465.0" type="curve"/>
      <point x="452.4" y="-465.0"/>
      <point x="543.0" y="-371.2"/>
      <point x="543.0" y="-250.0" type="curve" smooth="yes"/>
      <point x="543.0" y="-180.6"/>
      <point x="494.4" y="-127.8"/>
      <point x="340.40000000000003" y="-98.6" type="curve"/>
      <point x="331.6" y="-172.4" type="line"/>
      <point x="539.8" y="25.0" type="line"/>
      <point x="433.4" y="25.0" type="line"/>
      <point x="218.8" y="-183.2" type="line"/>
      <point x="211.2" y="-208.2" type="line"/>
      <point x="354.59999999999997" y="-229.6"/>
      <point x="393.8" y="-256.4"/>
      <point x="393.8" y="-296.6" type="curve" smooth="yes"/>
      <point x="393.8" y="-353.0"/>
      <point x="352.2" y="-390.4"/>
      <point x="273.40000000000003" y="-390.4" type="curve" smooth="yes"/>
      <point x="205.4" y="-390.4"/>
      <point x="169.8" y="-338.40000000000003"/>
      <point x="153.0" y="-338.40000000000003" type="curve" smooth="yes"/>
      <point x="122.20000000000002" y="-338.40000000000003"/>
      <point x="100.0" y="-365.59999999999997"/>
      <point x="100.0" y="-398.2" type="curve" smooth="yes"/>
      <point x="100.0" y="-441.4"/>
      <point x="134.0" y="-465.0"/>
    </contour>
    <contour>
      <point x="694.4000000000001" y="926.0" type="curve" smooth="yes"/>
      <point x="727.8" y="926.0"/>
      <point x="766.4000000000001" y="890.8"/>
      <point x="810.4" y="828.8" type="curve" smooth="yes"/>
      <point x="854.4" y="766.8000000000001"/>
      <point x="887.8000000000001" y="730.0"/>
      <point x="912.2" y="730.0" type="curve" smooth="yes"/>
      <point x="981.4" y="730.0"/>
      <point x="1053.0" y="791.2"/>
      <point x="1053.0" y="869.4" type="curve" smooth="yes"/>
      <point x="1053.0" y="972.0"/>
      <point x="946.5999999999999" y="1050.0"/>
      <point x="740.6" y="1050.0" type="curve" smooth="yes"/>
      <point x="349.8" y="1050.0"/>
      <point x="79.2" y="735.8000000000001"/>
      <point x="79.2" y="342.8" type="curve" smooth="yes"/>
      <point x="79.2" y="94.39999999999999"/>
      <point x="206.20000000000002" y="-22.0"/>
      <point x="460.0" y="-22.0" type="curve" smooth="yes"/>
      <point x="698.6" y="-22.0"/>
      <point x="851.4" y="106.4"/>
      <point x="960.6" y="358.40000000000003" type="curve"/>
      <point x="857.0" y="358.40000000000003" type="line"/>
      <point x="767.5999999999999" y="208.79999999999998"/>
      <point x="661.1999999999999" y="152.6"/>
      <point x="530.0" y="152.6" type="curve" smooth="yes"/>
      <point x="385.4" y="152.6"/>
      <point x="317.4" y="209.6"/>
      <point x="317.4" y="393.20000000000005" type="curve" smooth="yes"/>
      <point x="317.4" y="700.8"/>
      <point x="473.2" y="926.0"/>
    </contour>
  </outline>
</glyph>
<glyph name="eth" format="2">
  <advance width="1203.8"/>
  <unicode hex="00F0"/>
  <outline>
    <contour>
      <point x="917.6" y="695.1999999999999" type="line"/>
      <point x="913.6" y="865.4000000000001"/>
      <point x="827.0" y="1003.6"/>
      <point x="630.0" y="1003.6" type="curve" smooth="yes"/>
      <point x="324.2" y="1003.6"/>
      <point x="75.4" y="696.6"/>
      <point x="75.4" y="327.2" type="curve" smooth="yes"/>
      <point x="75.4" y="125.8"/>
      <point x="208.2" y="-22.0"/>
      <point x="479.2" y="-22.0" type="curve" smooth="yes"/>
      <point x="865.1999999999999" y="-22.0"/>
      <point x="1131.2" y="316.4"/>
      <point x="1131.2" y="780.8" type="curve" smooth="yes"/>
      <point x="1131.2" y="1151.1999999999998"/>
      <point x="960.0" y="1406.6000000000001"/>
      <point x="403.20000000000005" y="1486.0" type="curve"/>
      <point x="372.59999999999997" y="1363.8000000000002" type="line"/>
      <point x="808.0" y="1268.2"/>
      <point x="953.6" y="1109.1999999999998"/>
      <point x="885.4" y="657.2" type="curve"/>
    </contour>
    <contour>
      <point x="491.2" y="131.4" type="curve" smooth="yes"/>
      <point x="379.40000000000003" y="131.4"/>
      <point x="316.0" y="195.2040404040404"/>
      <point x="316.0" y="310.2" type="curve" smooth="yes"/>
      <point x="316.0" y="584.3290102389079"/>
      <point x="467.0" y="858.6"/>
      <point x="708.8000000000001" y="858.6" type="curve" smooth="yes"/>
      <point x="820.4" y="858.6"/>
      <point x="883.8" y="794.7959595959596"/>
      <point x="883.8" y="679.4" type="curve" smooth="yes"/>
      <point x="883.8" y="405.47098976109214"/>
      <point x="733.0" y="131.4"/>
    </contour>
    <contour>
      <point x="525.0" y="1044.2" type="line"/>
      <point x="1120.2" y="1384.8" type="line"/>
      <point x="1063.4" y="1486.0" type="line"/>
      <point x="468.2" y="1145.4" type="line"/>
    </contour>
  </outline>
</glyph>
<glyph name="aogonek" format="2">
  <advance width="1366.8000000000002"/>
  <unicode hex="0105"/>
  <outline>
    <contour>
      <point x="1327.1999999999998" y="193.4" type="curve"/>
      <point x="1281.0" y="269.2" type="line"/>
      <point x="1130.8" y="171.2"/>
      <point x="1001.4" y="146.2"/>
      <point x="891.2" y="156.2" type="curve"/>
      <point x="944.4" y="76.0" type="line"/>
      <point x="1282.2" y="1028.0" type="line"/>
      <point x="1110.2" y="1028.0" type="line"/>
      <point x="983.8" y="843.8" type="line"/>
      <point x="945.0" y="745.6" type="line" smooth="yes"/>
      <point x="835.2" y="459.8"/>
      <point x="567.4000000000001" y="141.79999999999998"/>
      <point x="419.0" y="141.79999999999998" type="curve" smooth="yes"/>
      <point x="335.2" y="141.79999999999998"/>
      <point x="282.79999999999995" y="184.6"/>
      <point x="282.79999999999995" y="271.8" type="curve" smooth="yes"/>
      <point x="282.79999999999995" y="502.40000000000003"/>
      <point x="519.2" y="908.5999999999999"/>
      <point x="782.8000000000001" y="908.5999999999999" type="curve" smooth="yes"/>
      <point x="866.4" y="908.5999999999999"/>
      <point x="937.6" y="872.4"/>
      <point x="990.8" y="760.6" type="curve"/>
      <point x="999.1999999999999" y="820.4" type="line"/>
      <point x="964.4" y="969.0"/>
      <point x="880.0" y="1050.0"/>
      <point x="738.6" y="1050.0" type="curve" smooth="yes"/>
      <point x="358.8" y="1050.0"/>
      <point x="40.199999999999996" y="570.2"/>
      <point x="40.199999999999996" y="235.4" type="curve" smooth="yes"/>
      <point x="40.199999999999996" y="66.2"/>
      <point x="159.39999999999998" y="-22.0"/>
      <point x="315.8" y="-22.0" type="curve" smooth="yes"/>
      <point x="467.0" y="-22.0"/>
      <point x="608.6" y="55.0"/>
      <point x="889.1999999999999" y="485.2" type="curve"/>
      <point x="916.0" y="485.2" type="line"/>
      <point x="768.4" y="105.8" type="line" smooth="yes"/>
      <point x="732.4" y="14.4"/>
      <point x="765.0" y="-22.0"/>
      <point x="867.8" y="-22.0" type="curve" smooth="yes"/>
      <point x="924.4" y="-22.0"/>
      <point x="1003.1999999999999" y="-7.6"/>
      <point x="1105.0" y="44.6" type="curve"/>
      <point x="1094.2" y="60.0" type="line"/>
      <point x="959.0" y="-57.4" type="line" smooth="yes"/>
      <point x="793.4" y="-198.0"/>
      <point x="759.6" y="-259.2"/>
      <point x="759.6" y="-335.0" type="curve" smooth="yes"/>
      <point x="759.6" y="-406.79999999999995"/>
      <point x="801.1999999999999" y="-465.0"/>
      <point x="898.8" y="-465.0" type="curve" smooth="yes"/>
      <point x="964.8" y="-465.0"/>
      <point x="1023.5999999999999" y="-450.0"/>
      <point x="1111.6000000000001" y="-395.8" type="curve"/>
      <point x="1111.6" y="-322.6" type="line"/>
      <point x="1057.8" y="-348.8"/>
      <point x="1026.6" y="-355.0"/>
      <point x="987.8" y="-355.0" type="curve" smooth="yes"/>
      <point x="934.0" y="-355.0"/>
      <point x="907.0" y="-331.0"/>
      <point x="907.0" y="-287.6" type="curve" smooth="yes"/>
      <point x="907.0" y="-242.79999999999998"/>
      <point x="917.1999999999999" y="-198.6"/>
      <point x="1029.3999999999999" y="-93.8" type="curve" smooth="yes"/>
      <point x="1165.8" y="35.0" type="line" smooth="yes"/>
      <point x="1219.2" y="85.39999999999999"/>
      <point x="1273.4" y="138.6"/>
    </contour>
  </outline>
</glyph>
<glyph name="Eogonek" format="2">
  <advance width="1484.8"/>
  <unicode hex="0118"/>
  <outline>
    <contour>
      <point x="516.0" y="1265.0" type="line"/>
      <point x="173.6" y="149.8" type="line"/>
      <point x="-13.6" y="101.60000000000001" type="line"/>
      <point x="-45.0" y="0.0" type="line"/>
      <point x="396.2" y="0.0" type="line"/>
      <point x="829.1999999999999" y="1414.0" type="line"/>
      <point x="371.6" y="1414.0" type="line"/>
      <point x="340.4" y="1312.3999999999999" type="line"/>
    </contour>
    <contour>
      <point x="884.8000000000001" y="480.0" type="line"/>
      <point x="1018.4" y="480.0" type="line"/>
      <point x="1096.4" y="735.0" type="line"/>
      <point x="1174.4" y="990.0" type="line"/>
      <point x="1040.8" y="990.0" type="line"/>
      <point x="971.4" y="815.8000000000001" type="line"/>
      <point x="503.2" y="815.8000000000001" type="line"/>
      <point x="453.8" y="658.1999999999999" type="line"/>
      <point x="923.1999999999999" y="658.1999999999999" type="line"/>
    </contour>
    <contour>
      <point x="1486.4" y="1031.8" type="line"/>
      <point x="1619.0" y="1489.6000000000001" type="line"/>
      <point x="1508.0" y="1489.6000000000001" type="line"/>
      <point x="1399.2" y="1414.0" type="line"/>
      <point x="685.4" y="1414.0" type="line"/>
      <point x="633.8000000000001" y="1250.4" type="line"/>
      <point x="1402.8" y="1250.4" type="line"/>
      <point x="1357.2" y="1339.4" type="line"/>
      <point x="1341.1999999999998" y="1031.8" type="line"/>
    </contour>
    <contour>
      <point x="992.1999999999999" y="-78.2" type="line"/>
      <point x="1120.3999999999999" y="-78.2" type="line"/>
      <point x="1397.2" y="436.2" type="line"/>
      <point x="1250.2" y="436.2" type="line"/>
      <point x="919.6" y="76.0" type="line"/>
      <point x="1062.2" y="163.6" type="line"/>
      <point x="305.40000000000003" y="163.6" type="line"/>
      <point x="253.4" y="0.0" type="line"/>
      <point x="955.0" y="0.0" type="line"/>
    </contour>
    <contour>
      <point x="826.8" y="-287.59999999999997" type="curve" smooth="yes"/>
      <point x="826.8" y="-245.2"/>
      <point x="835.0" y="-207.79999999999998"/>
      <point x="916.4" y="-100.8" type="curve" smooth="yes"/>
      <point x="1032.2" y="49.0" type="line"/>
      <point x="953.2" y="49.0" type="line"/>
      <point x="837.5999999999999" y="-66.8" type="line" smooth="yes"/>
      <point x="699.5999999999999" y="-204.8"/>
      <point x="679.4" y="-258.79999999999995"/>
      <point x="679.4" y="-335.0" type="curve" smooth="yes"/>
      <point x="679.4" y="-406.79999999999995"/>
      <point x="721.0" y="-465.0"/>
      <point x="818.6" y="-465.0" type="curve" smooth="yes"/>
      <point x="884.6" y="-465.0"/>
      <point x="943.4" y="-450.0"/>
      <point x="1031.4" y="-395.8" type="curve"/>
      <point x="1031.4" y="-322.6" type="line"/>
      <point x="977.6" y="-348.8"/>
      <point x="946.4" y="-355.0"/>
      <point x="907.5999999999999" y="-355.0" type="curve" smooth="yes"/>
      <point x="853.8000000000001" y="-355.0"/>
      <point x="826.8" y="-331.0"/>
    </contour>
  </outline>
</glyph>
<glyph name="Hbar" format="2">
  <advance width="1774.3999999999999"/>
  <unicode hex="0126"/>
  <outline>
    <contour>
      <point x="447.79999999999995" y="638.8" type="line"/>
      <point x="1403.8000000000002" y="638.8" type="line"/>
      <point x="1449.8" y="802.4" type="line"/>
      <point x="494.8" y="802.4" type="line"/>
    </contour>
    <contour>
      <point x="259.8" y="989.8" type="line"/>
      <point x="1814.0" y="989.8" type="line"/>
      <point x="1859.6" y="1138.2" type="line"/>
      <point x="305.40000000000003" y="1138.2" type="line"/>
    </contour>
    <contour>
      <point x="518.4" y="1265.0" type="line"/>
      <point x="176.0" y="149.8" type="line"/>
      <point x="-11.2" y="101.60000000000001" type="line"/>
      <point x="-42.6" y="0.0" type="line"/>
      <point x="588.2" y="0.0" type="line"/>
      <point x="618.4000000000001" y="101.60000000000001" type="line"/>
      <point x="443.8" y="149.0" type="line"/>
      <point x="786.1999999999999" y="1264.1999999999998" type="line"/>
      <point x="973.4" y="1312.3999999999999" type="line"/>
      <point x="1003.5999999999999" y="1414.0" type="line"/>
      <point x="374.0" y="1414.0" type="line"/>
      <point x="342.79999999999995" y="1312.3999999999999" type="line"/>
    </contour>
    <contour>
      <point x="1445.4" y="1265.0" type="line"/>
      <point x="1103.2" y="149.8" type="line"/>
      <point x="915.8000000000001" y="101.60000000000001" type="line"/>
      <point x="885.6" y="0.0" type="line"/>
      <point x="1515.2" y="0.0" type="line"/>
      <point x="1546.6000000000001" y="101.60000000000001" type="line"/>
      <point x="1370.8" y="149.0" type="line"/>
      <point x="1713.1999999999998" y="1264.1999999999998" type="line"/>
      <point x="1900.3999999999999" y="1312.3999999999999" type="line"/>
      <point x="1930.8" y="1414.0" type="line"/>
      <point x="1301.0" y="1414.0" type="line"/>
      <point x="1270.8" y="1312.3999999999999" type="line"/>
    </contour>
  </outline>
</glyph>
<glyph name="kgreenlandic" format="2">
  <advance width="1369.6000000000001"/>
  <unicode hex="0138"/>
  <outline>
    <contour>
      <point x="680.8" y="1040.8" type="line"/>
      <point x="632.4" y="1047.0"/>
      <point x="583.4" y="1050.0"/>
      <point x="531.6" y="1050.0" type="curve" smooth="yes"/>
      <point x="265.4" y="1050.0"/>
      <point x="138.60000000000002" y="979.2"/>
      <point x="67.2" y="717.8" type="curve"/>
      <point x="84.6" y="712.2" type="line"/>
      <point x="164.4" y="821.2"/>
      <point x="247.6" y="855.8000000000001"/>
      <point x="377.8" y="855.8000000000001" type="curve" smooth="yes"/>
      <point x="381.4" y="855.8000000000001"/>
      <point x="385.6" y="855.8000000000001"/>
      <point x="388.0" y="855.8000000000001" type="curve"/>
      <point x="124.8" y="0.0" type="line"/>
      <point x="362.6" y="0.0" type="line"/>
    </contour>
    <contour>
      <point x="1211.0" y="731.8000000000001" type="curve" smooth="yes"/>
      <point x="1271.2" y="731.8000000000001"/>
      <point x="1379.0" y="784.1999999999999"/>
      <point x="1379.0" y="913.8" type="curve" smooth="yes"/>
      <point x="1379.0" y="991.0"/>
      <point x="1327.0" y="1050.0"/>
      <point x="1214.8" y="1050.0" type="curve" smooth="yes"/>
      <point x="1082.4" y="1050.0"/>
      <point x="955.1999999999999" y="966.4"/>
      <point x="525.6" y="545.8" type="curve"/>
      <point x="513.4" y="517.8000000000001" type="line"/>
      <point x="687.1999999999999" y="80.6"/>
      <point x="796.8" y="-22.0"/>
      <point x="917.5999999999999" y="-22.0" type="curve" smooth="yes"/>
      <point x="1004.6" y="-22.0"/>
      <point x="1125.0" y="40.8"/>
      <point x="1293.0" y="244.0" type="curve"/>
      <point x="1234.6000000000001" y="305.40000000000003" type="line"/>
      <point x="1135.8" y="202.79999999999998"/>
      <point x="1084.6" y="159.2"/>
      <point x="1037.6000000000001" y="159.2" type="curve" smooth="yes"/>
      <point x="959.8000000000001" y="159.2"/>
      <point x="892.2" y="232.2"/>
      <point x="707.4" y="634.5999999999999" type="curve"/>
      <point x="636.4" y="523.4" type="line"/>
      <point x="976.6" y="827.4"/>
      <point x="1036.8" y="864.8000000000001"/>
      <point x="1088.0" y="864.8000000000001" type="curve" smooth="yes"/>
      <point x="1107.2" y="864.8000000000001"/>
      <point x="1132.0" y="836.0"/>
      <point x="1156.0" y="802.4" type="curve" smooth="yes"/>
      <point x="1180.0" y="768.8000000000001"/>
      <point x="1203.0" y="731.8000000000001"/>
    </contour>
  </outline>
</glyph>
<glyph name="Lslash" format="2">
  <advance width="1363.2"/>
  <unicode hex="0141"/>
  <outline>
    <contour>
      <point x="808.0" y="1264.1999999999998" type="line"/>
      <point x="995.2" y="1312.4" type="line"/>
      <point x="1025.4" y="1414.0" type="line"/>
      <point x="395.79999999999995" y="1414.0" type="line"/>
      <point x="364.6" y="1312.4" type="line"/>
      <point x="540.2" y="1265.0" type="line"/>
      <point x="197.8" y="149.8" type="line"/>
      <point x="10.6" y="101.6" type="line"/>
      <point x="-20.800000000000004" y="0.0" type="line"/>
      <point x="420.4" y="0.0" type="line"/>
    </contour>
    <contour>
      <point x="858.8000000000001" y="80.0" type="line"/>
      <point x="988.4" y="163.6" type="line"/>
      <point x="226.60000000000002" y="163.6" type="line"/>
      <point x="174.6" y="0.0" type="line"/>
      <point x="892.0" y="0.0" type="line"/>
      <point x="937.2" y="-78.19999999999999" type="line"/>
      <point x="1065.3999999999999" y="-78.19999999999999" type="line"/>
      <point x="1299.4" y="482.0" type="line"/>
      <point x="1152.0" y="482.0" type="line"/>
    </contour>
    <contour>
      <point x="1071.0" y="1001.0" type="line"/>
      <point x="599.5999999999999" y="779.0" type="line"/>
      <point x="480.8" y="763.0" type="line"/>
      <point x="171.6" y="618.2" type="line"/>
      <point x="118.80000000000001" y="446.79999999999995" type="line"/>
      <point x="428.8" y="591.6" type="line"/>
      <point x="546.8" y="607.6" type="line"/>
      <point x="1019.0" y="829.6" type="line"/>
    </contour>
  </outline>
</glyph>
<glyph name="Scedilla" format="2">
  <advance width="1304.2"/>
  <unicode hex="015E"/>
  <outline>
    <contour>
      <point x="1154.3999999999999" y="1208.8" type="curve"/>
      <point x="1110.4" y="1279.4" type="line"/>
      <point x="1121.2" y="979.6" type="line"/>
      <point x="1267.8" y="979.6" type="line"/>
      <point x="1388.4" y="1489.6" type="line"/>
      <point x="1269.6" y="1489.6" type="line"/>
      <point x="1152.3999999999999" y="1369.8" type="line"/>
      <point x="1285.4" y="1349.4" type="line"/>
      <point x="1188.0" y="1409.6"/>
      <point x="1057.3999999999999" y="1436.0"/>
      <point x="907.5999999999999" y="1436.0" type="curve" smooth="yes"/>
      <point x="496.8" y="1436.0"/>
      <point x="297.20000000000005" y="1256.0"/>
      <point x="297.20000000000005" y="981.8000000000001" type="curve" smooth="yes"/>
      <point x="297.20000000000005" y="779.8"/>
      <point x="427.8" y="714.6"/>
      <point x="589.8000000000001" y="659.1999999999999" type="curve" smooth="yes"/>
      <point x="751.8" y="603.8"/>
      <point x="909.2" y="567.0"/>
      <point x="909.2" y="415.8" type="curve" smooth="yes"/>
      <point x="909.2" y="250.4"/>
      <point x="776.8000000000001" y="142.6"/>
      <point x="497.8" y="142.6" type="curve" smooth="yes"/>
      <point x="387.0" y="142.6"/>
      <point x="297.8" y="158.4"/>
      <point x="223.2" y="180.0" type="curve"/>
      <point x="353.6" y="35.8" type="line"/>
      <point x="228.0" y="448.8" type="line"/>
      <point x="82.8" y="448.8" type="line"/>
      <point x="91.6" y="30.6" type="line"/>
      <point x="191.8" y="-0.6"/>
      <point x="305.2" y="-22.0"/>
      <point x="482.6" y="-22.0" type="curve" smooth="yes"/>
      <point x="927.6" y="-22.0"/>
      <point x="1158.6000000000001" y="175.6"/>
      <point x="1158.6000000000001" y="487.40000000000003" type="curve" smooth="yes"/>
      <point x="1158.6000000000001" y="716.6"/>
      <point x="987.4000000000001" y="788.4"/>
      <point x="821.8" y="843.6" type="curve" smooth="yes"/>
      <point x="656.2" y="898.8000000000001"/>
      <point x="539.8" y="929.8"/>
      <point x="539.8" y="1060.8" type="curve" smooth="yes"/>
      <point x="539.8" y="1190.2"/>
      <point x="625.2" y="1276.0"/>
      <point x="880.1999999999999" y="1276.0" type="curve" smooth="yes"/>
      <point x="995.8" y="1276.0"/>
      <point x="1100.2" y="1248.4"/>
    </contour>
    <contour>
      <point x="381.4" y="-465.0" type="curve"/>
      <point x="594.5999999999999" y="-465.0"/>
      <point x="685.2" y="-371.2"/>
      <point x="685.2" y="-250.0" type="curve" smooth="yes"/>
      <point x="685.2" y="-180.6"/>
      <point x="636.6" y="-127.8"/>
      <point x="482.6" y="-98.6" type="curve"/>
      <point x="473.79999999999995" y="-172.4" type="line"/>
      <point x="682.0" y="25.0" type="line"/>
      <point x="575.6" y="25.0" type="line"/>
      <point x="361.0" y="-183.2" type="line"/>
      <point x="353.4" y="-208.2" type="line"/>
      <point x="496.8" y="-229.6"/>
      <point x="536.0" y="-256.4"/>
      <point x="536.0" y="-296.6" type="curve" smooth="yes"/>
      <point x="536.0" y="-353.0"/>
      <point x="494.4" y="-390.4"/>
      <point x="415.59999999999997" y="-390.4" type="curve" smooth="yes"/>
      <point x="347.59999999999997" y="-390.4"/>
      <point x="312.0" y="-338.40000000000003"/>
      <point x="295.2" y="-338.40000000000003" type="curve" smooth="yes"/>
      <point x="264.40000000000003" y="-338.40000000000003"/>
      <point x="242.20000000000002" y="-365.59999999999997"/>
      <point x="242.20000000000002" y="-398.2" type="curve" smooth="yes"/>
      <point x="242.20000000000002" y="-441.4"/>
      <point x="276.2" y="-465.0"/>
    </contour>
  </outline>
</glyph>
<glyph name="uni0163" format="2">
  <advance width="882.0"/>
  <unicode hex="0163"/>
  <outline>
    <contour>
      <point x="149.8" y="897.2" type="line"/>
      <point x="926.8000000000001" y="897.2" type="line"/>
      <point x="926.8000000000001" y="1028.0" type="line"/>
      <point x="152.20000000000002" y="1028.0" type="line"/>
    </contour>
    <contour>
      <point x="457.6" y="363.0" type="curve" smooth="yes"/>
      <point x="741.4" y="1253.6" type="line"/>
      <point x="511.4" y="1253.6" type="line"/>
      <point x="225.4" y="344.20000000000005" type="line" smooth="yes"/>
      <point x="190.0" y="232.6"/>
      <point x="176.79999999999998" y="168.8"/>
      <point x="176.79999999999998" y="122.8" type="curve" smooth="yes"/>
      <point x="176.79999999999998" y="24.599999999999998"/>
      <point x="226.4" y="-22.0"/>
      <point x="311.4" y="-22.0" type="curve" smooth="yes"/>
      <point x="415.8" y="-22.0"/>
      <point x="565.8" y="29.799999999999997"/>
      <point x="778.2" y="227.79999999999998" type="curve"/>
      <point x="720.6" y="303.2" type="line"/>
      <point x="574.4" y="184.0"/>
      <point x="503.40000000000003" y="160.6"/>
      <point x="458.8" y="160.6" type="curve" smooth="yes"/>
      <point x="431.8" y="160.6"/>
      <point x="418.59999999999997" y="168.4"/>
      <point x="418.59999999999997" y="203.0" type="curve" smooth="yes"/>
      <point x="418.59999999999997" y="226.4"/>
      <point x="430.0" y="276.59999999999997"/>
    </contour>
    <contour>
      <point x="163.8" y="-465.0" type="curve"/>
      <point x="377.0" y="-465.0"/>
      <point x="467.6" y="-371.2"/>
      <point x="467.6" y="-250.0" type="curve" smooth="yes"/>
      <point x="467.6" y="-180.6"/>
      <point x="419.0" y="-127.8"/>
      <point x="265.0" y="-98.6" type="curve"/>
      <point x="256.2" y="-172.4" type="line"/>
      <point x="464.4" y="25.0" type="line"/>
      <point x="358.0" y="25.0" type="line"/>
      <point x="143.4" y="-183.2" type="line"/>
      <point x="135.79999999999998" y="-208.2" type="line"/>
      <point x="279.2" y="-229.6"/>
      <point x="318.40000000000003" y="-256.4"/>
      <point x="318.40000000000003" y="-296.6" type="curve" smooth="yes"/>
      <point x="318.40000000000003" y="-353.0"/>
      <point x="276.8" y="-390.4"/>
      <point x="198.0" y="-390.4" type="curve" smooth="yes"/>
      <point x="130.0" y="-390.4"/>
      <point x="94.4" y="-338.40000000000003"/>
      <point x="77.6" y="-338.40000000000003" type="curve" smooth="yes"/>
      <point x="46.8" y="-338.40000000000003"/>
      <point x="24.6" y="-365.59999999999997"/>
      <point x="24.6" y="-398.2" type="curve" smooth="yes"/>
      <point x="24.6" y="-441.4"/>
      <point x="58.599999999999994" y="-465.0"/>
    </contour>
  </outline>
</glyph>
<glyph name="tbar" format="2">
  <advance width="918.4"/>
  <unicode hex="0167"/>
  <outline>
    <contour>
      <point x="114.0" y="525.2" type="line"/>
      <point x="784.8000000000001" y="525.2" type="line"/>
      <point x="821.4000000000001" y="647.2" type="line"/>
      <point x="150.6" y="647.2" type="line"/>
    </contour>
    <contour>
      <point x="181.0" y="897.2" type="line"/>
      <point x="958.0" y="897.2" type="line"/>
      <point x="958.0" y="1028.0" type="line"/>
      <point x="183.4" y="1028.0" type="line"/>
    </contour>
    <contour>
      <point x="449.79999999999995" y="203.0" type="curve" smooth="yes"/>
      <point x="449.79999999999995" y="226.4"/>
      <point x="461.2" y="276.59999999999997"/>
      <point x="488.8" y="363.0" type="curve" smooth="yes"/>
      <point x="772.6" y="1253.6" type="line"/>
      <point x="542.6" y="1253.6" type="line"/>
      <point x="256.6" y="344.20000000000005" type="line" smooth="yes"/>
      <point x="221.20000000000002" y="232.6"/>
      <point x="208.0" y="168.8"/>
      <point x="208.0" y="122.8" type="curve" smooth="yes"/>
      <point x="208.0" y="24.599999999999998"/>
      <point x="257.59999999999997" y="-22.0"/>
      <point x="342.59999999999997" y="-22.0" type="curve" smooth="yes"/>
      <point x="447.0" y="-22.0"/>
      <point x="597.0" y="29.799999999999997"/>
      <point x="809.4000000000001" y="227.79999999999998" type="curve"/>
      <point x="751.8" y="303.2" type="line"/>
      <point x="605.6" y="184.0"/>
      <point x="534.5999999999999" y="160.6"/>
      <point x="490.0" y="160.6" type="curve" smooth="yes"/>
      <point x="463.0" y="160.6"/>
      <point x="449.79999999999995" y="168.4"/>
    </contour>
  </outline>
</glyph>
<glyph name="Uogonek" format="2">
  <advance width="1659.0"/>
  <unicode hex="0172"/>
  <outline>
    <contour>
      <point x="509.8" y="528.8" type="curve" smooth="yes"/>
      <point x="735.8" y="1264.1999999999998" type="line"/>
      <point x="923.0" y="1312.3999999999999" type="line"/>
      <point x="953.2" y="1414.0" type="line"/>
      <point x="323.6" y="1414.0" type="line"/>
      <point x="292.40000000000003" y="1312.3999999999999" type="line"/>
      <point x="468.0" y="1265.0" type="line"/>
      <point x="261.4" y="592.6" type="line" smooth="yes"/>
      <point x="127.60000000000001" y="159.4"/>
      <point x="324.0" y="-22.0"/>
      <point x="733.6" y="-22.0" type="curve" smooth="yes"/>
      <point x="1096.6" y="-22.0"/>
      <point x="1287.6" y="130.4"/>
      <point x="1405.6" y="515.6" type="curve" smooth="yes"/>
      <point x="1634.8000000000002" y="1265.4" type="line"/>
      <point x="1823.0" y="1312.3999999999999" type="line"/>
      <point x="1852.2" y="1414.0" type="line"/>
      <point x="1312.0" y="1414.0" type="line"/>
      <point x="1282.6" y="1312.3999999999999" type="line"/>
      <point x="1462.2" y="1264.6" type="line"/>
      <point x="1233.0" y="516.6" type="line" smooth="yes"/>
      <point x="1158.8" y="273.4"/>
      <point x="1036.4" y="178.4"/>
      <point x="792.8" y="178.4" type="curve" smooth="yes"/>
      <point x="551.8000000000001" y="178.4"/>
      <point x="435.2" y="286.8"/>
    </contour>
    <contour>
      <point x="598.0" y="-287.59999999999997" type="curve" smooth="yes"/>
      <point x="598.0" y="-245.2"/>
      <point x="608.0" y="-207.79999999999998"/>
      <point x="694.6" y="-100.8" type="curve" smooth="yes"/>
      <point x="817.6" y="49.0" type="line"/>
      <point x="738.6" y="49.0" type="line"/>
      <point x="616.4000000000001" y="-66.8" type="line" smooth="yes"/>
      <point x="471.4" y="-203.2"/>
      <point x="450.59999999999997" y="-259.2"/>
      <point x="450.59999999999997" y="-335.0" type="curve" smooth="yes"/>
      <point x="450.59999999999997" y="-406.79999999999995"/>
      <point x="492.2" y="-465.0"/>
      <point x="589.8" y="-465.0" type="curve" smooth="yes"/>
      <point x="655.8000000000001" y="-465.0"/>
      <point x="714.6" y="-450.0"/>
      <point x="802.6" y="-395.8" type="curve"/>
      <point x="802.5999999999999" y="-322.6" type="line"/>
      <point x="748.8" y="-348.8"/>
      <point x="717.6" y="-355.0"/>
      <point x="678.8000000000001" y="-355.0" type="curve" smooth="yes"/>
      <point x="625.0" y="-355.0"/>
      <point x="598.0" y="-331.0"/>
    </contour>
  </outline>
</glyph>
<glyph name="uni018F" format="2">
  <advance width="1511.8"/>
  <unicode hex="018F"/>
  <outline>
    <contour>
      <point x="192.6" y="736.1999999999999" type="line"/>
      <point x="158.2" y="619.4"/>
      <point x="141.2" y="514.6"/>
      <point x="141.2" y="421.59999999999997" type="curve" smooth="yes"/>
      <point x="141.2" y="139.20000000000002"/>
      <point x="311.6" y="-22.0"/>
      <point x="637.6" y="-22.0" type="curve" smooth="yes"/>
      <point x="1112.3999999999999" y="-22.0"/>
      <point x="1467.2" y="374.8"/>
      <point x="1467.2" y="906.2" type="curve" smooth="yes"/>
      <point x="1467.2" y="1246.8"/>
      <point x="1251.2" y="1436.0"/>
      <point x="894.4" y="1436.0" type="curve" smooth="yes"/>
      <point x="742.2" y="1436.0"/>
      <point x="539.0" y="1381.2"/>
      <point x="326.8" y="1254.2" type="curve"/>
      <point x="294.6" y="1121.0" type="line"/>
      <point x="455.6" y="1184.3999999999999"/>
      <point x="606.8000000000001" y="1219.4"/>
      <point x="779.2" y="1219.4" type="curve" smooth="yes"/>
      <point x="1064.0" y="1219.4"/>
      <point x="1201.6000000000001" y="1116.2"/>
      <point x="1201.6000000000001" y="861.6" type="curve" smooth="yes"/>
      <point x="1201.6000000000001" y="461.2"/>
      <point x="1013.8" y="157.6"/>
      <point x="660.1999999999999" y="157.6" type="curve" smooth="yes"/>
      <point x="465.6" y="157.6"/>
      <point x="376.40000000000003" y="247.8"/>
      <point x="376.40000000000003" y="411.40000000000003" type="curve" smooth="yes"/>
      <point x="376.40000000000003" y="476.6"/>
      <point x="391.4" y="554.8"/>
      <point x="419.79999999999995" y="644.6" type="curve"/>
      <point x="350.40000000000003" y="572.6" type="line"/>
      <point x="1234.8" y="572.6" type="line"/>
      <point x="1280.8000000000002" y="736.1999999999999" type="line"/>
    </contour>
  </outline>
</glyph>
<glyph name="Ohorn" format="2">
  <advance width="1676.8"/>
  <unicode hex="01A0"/>
  <anchor x="1089.2" y="1414.0" name="UCtop"/>
  <anchor x="672.6" y="0.0" name="bottom"/>
  <outline>
    <contour>
      <point x="423.0" y="511.0" type="curve" smooth="yes"/>
      <point x="423.0" y="899.2"/>
      <point x="642.8000000000001" y="1256.3999999999999"/>
      <point x="1016.4" y="1256.3999999999999" type="curve" smooth="yes"/>
      <point x="1255.6" y="1256.3999999999999"/>
      <point x="1365.3999999999999" y="1123.2"/>
      <point x="1365.3999999999999" y="903.0" type="curve" smooth="yes"/>
      <point x="1365.3999999999999" y="514.8"/>
      <point x="1145.6000000000001" y="157.6"/>
      <point x="772.0" y="157.6" type="curve" smooth="yes"/>
      <point x="532.8" y="157.6"/>
      <point x="423.0" y="290.8"/>
    </contour>
    <contour>
      <point x="1631.3999999999999" y="894.8000000000001" type="curve" smooth="yes"/>
      <point x="1631.3999999999999" y="1064.4"/>
      <point x="1576.3999999999999" y="1213.2"/>
      <point x="1441.4" y="1318.2" type="curve"/>
      <point x="1437.4" y="1302.8" type="line"/>
      <point x="1676.6000000000001" y="1296.4"/>
      <point x="1783.2" y="1402.2"/>
      <point x="1783.2" y="1587.0" type="curve" smooth="yes"/>
      <point x="1783.2" y="1672.0"/>
      <point x="1733.0" y="1712.2"/>
      <point x="1670.6" y="1712.2" type="curve" smooth="yes"/>
      <point x="1608.2" y="1712.2"/>
      <point x="1560.0" y="1668.2"/>
      <point x="1560.0" y="1637.8" type="curve" smooth="yes"/>
      <point x="1560.0" y="1624.4"/>
      <point x="1588.0" y="1584.8"/>
      <point x="1588.0" y="1531.4" type="curve" smooth="yes"/>
      <point x="1588.0" y="1442.8000000000002"/>
      <point x="1532.2" y="1398.8"/>
      <point x="1415.2" y="1398.8" type="curve" smooth="yes"/>
      <point x="1282.4" y="1398.8"/>
      <point x="1228.4276066265973" y="1436.0"/>
      <point x="1024.6" y="1436.0" type="curve" smooth="yes"/>
      <point x="517.2" y="1436.0"/>
      <point x="157.0" y="1011.0"/>
      <point x="157.0" y="519.2" type="curve" smooth="yes"/>
      <point x="157.0" y="187.20000000000002"/>
      <point x="364.0" y="-22.0"/>
      <point x="763.8" y="-22.0" type="curve" smooth="yes"/>
      <point x="1271.1999999999998" y="-22.0"/>
      <point x="1631.3999999999999" y="403.0"/>
    </contour>
  </outline>
</glyph>
<glyph name="uhorn" format="2">
  <advance width="1492.6000000000001"/>
  <unicode hex="01B0"/>
  <anchor x="825.4" y="1028.0" name="top"/>
  <anchor x="577.8" y="0.0" name="bottom"/>
  <outline>
    <contour>
      <point x="840.8" y="105.8" type="line" smooth="yes"/>
      <point x="809.8000000000001" y="16.2"/>
      <point x="840.5999999999999" y="-22.0"/>
      <point x="927.0" y="-22.0" type="curve" smooth="yes"/>
      <point x="1013.8000000000001" y="-22.0"/>
      <point x="1167.4" y="20.0"/>
      <point x="1382.2" y="194.79999999999998" type="curve"/>
      <point x="1335.2" y="272.0" type="line"/>
      <point x="1181.4" y="173.39999999999998"/>
      <point x="1051.1999999999998" y="146.2"/>
      <point x="942.4" y="156.6" type="curve"/>
      <point x="1001.1999999999999" y="73.8" type="line"/>
      <point x="1313.0" y="1028.0" type="line"/>
      <point x="1067.0" y="1028.0" type="line"/>
      <point x="917.0" y="636.6" type="line" smooth="yes"/>
      <point x="766.4" y="235.2"/>
      <point x="594.6" y="161.2"/>
      <point x="491.0" y="161.2" type="curve" smooth="yes"/>
      <point x="436.40000000000003" y="161.2"/>
      <point x="400.4" y="183.6"/>
      <point x="400.4" y="228.2" type="curve" smooth="yes"/>
      <point x="400.4" y="256.4"/>
      <point x="412.0" y="297.6"/>
      <point x="436.0" y="359.0" type="curve" smooth="yes"/>
      <point x="634.8" y="860.0" type="line" smooth="yes"/>
      <point x="687.5999999999999" y="994.2"/>
      <point x="654.4" y="1050.0"/>
      <point x="546.2" y="1050.0" type="curve" smooth="yes"/>
      <point x="433.0" y="1050.0"/>
      <point x="272.8" y="1003.6"/>
      <point x="44.0" y="805.0" type="curve"/>
      <point x="98.0" y="727.0" type="line"/>
      <point x="241.4" y="828.4"/>
      <point x="360.0" y="871.2"/>
      <point x="468.8" y="867.4" type="curve"/>
      <point x="427.2" y="942.0" type="line"/>
      <point x="229.4" y="437.2" type="line" smooth="yes"/>
      <point x="171.2" y="287.6"/>
      <point x="158.4" y="219.4"/>
      <point x="158.4" y="165.79999999999998" type="curve" smooth="yes"/>
      <point x="158.4" y="57.6"/>
      <point x="228.8" y="-22.0"/>
      <point x="385.2" y="-22.0" type="curve" smooth="yes"/>
      <point x="562.6" y="-22.0"/>
      <point x="693.5999999999999" y="40.60000000000001"/>
      <point x="933.2" y="468.0" type="curve"/>
      <point x="965.8000000000001" y="468.0" type="line"/>
    </contour>
    <contour>
      <point x="1630.6000000000001" y="1221.0" type="curve" smooth="yes"/>
      <point x="1630.6000000000001" y="1294.0"/>
      <point x="1588.4" y="1326.2"/>
      <point x="1526.0" y="1326.2" type="curve" smooth="yes"/>
      <point x="1463.6" y="1326.2"/>
      <point x="1415.3999999999999" y="1282.2"/>
      <point x="1415.3999999999999" y="1251.8" type="curve" smooth="yes"/>
      <point x="1415.3999999999999" y="1238.4"/>
      <point x="1443.3999999999999" y="1198.8"/>
      <point x="1443.3999999999999" y="1151.8" type="curve" smooth="yes"/>
      <point x="1443.3999999999999" y="1077.4"/>
      <point x="1391.3999999999999" y="1028.0"/>
      <point x="1274.6000000000001" y="1028.0" type="curve" smooth="yes"/>
      <point x="1162.8" y="1028.0" type="line"/>
      <point x="1134.2" y="941.4" type="line"/>
      <point x="1272.8" y="941.4" type="line" smooth="yes"/>
      <point x="1496.8" y="941.4"/>
      <point x="1630.6000000000001" y="1060.6000000000001"/>
    </contour>
  </outline>
</glyph>
<glyph name="uni0237" format="2">
  <advance width="708.6"/>
  <unicode hex="0237"/>
  <anchor x="518.4000000000001" y="1032.8" name="top"/>
  <anchor x="-58.4" y="-443.0" name="bottom"/>
  <outline>
    <contour>
      <point x="427.8" y="193.60000000000002" type="curve" smooth="yes"/>
      <point x="627.5999999999999" y="863.0" type="line" smooth="yes"/>
      <point x="669.1999999999999" y="1001.4"/>
      <point x="649.2" y="1050.0"/>
      <point x="529.4" y="1050.0" type="curve" smooth="yes"/>
      <point x="417.59999999999997" y="1050.0"/>
      <point x="271.0" y="994.4"/>
      <point x="34.2" y="808.4" type="curve"/>
      <point x="87.6" y="728.6" type="line"/>
      <point x="267.8" y="842.6"/>
      <point x="380.2" y="872.1999999999999"/>
      <point x="473.2" y="866.0" type="curve"/>
      <point x="423.8" y="942.0" type="line"/>
      <point x="170.6" y="90.60000000000001" type="line" smooth="yes"/>
      <point x="65.6" y="-259.0"/>
      <point x="-5.4" y="-307.2"/>
      <point x="-85.4" y="-307.2" type="curve" smooth="yes"/>
      <point x="-97.0" y="-307.2"/>
      <point x="-120.4" y="-287.40000000000003"/>
      <point x="-161.2" y="-249.60000000000002" type="curve" smooth="yes"/>
      <point x="-202.0" y="-211.8"/>
      <point x="-234.2" y="-177.2"/>
      <point x="-242.2" y="-177.2" type="curve" smooth="yes"/>
      <point x="-308.4" y="-177.2"/>
      <point x="-366.40000000000003" y="-236.0"/>
      <point x="-366.40000000000003" y="-314.0" type="curve" smooth="yes"/>
      <point x="-366.40000000000003" y="-399.59999999999997"/>
      <point x="-316.20000000000005" y="-465.0"/>
      <point x="-181.6" y="-465.0" type="curve" smooth="yes"/>
      <point x="64.2" y="-465.0"/>
      <point x="296.0" y="-248.2"/>
    </contour>
  </outline>
</glyph>
<glyph name="uni02B9" format="2">
  <advance width="453.8"/>
  <unicode hex="02B9"/>
  <outline>
    <contour>
      <point x="217.8" y="908.0" type="line"/>
      <point x="347.2" y="908.0" type="line"/>
      <point x="621.1999999999999" y="1368.0" type="line"/>
      <point x="634.0" y="1414.0" type="line"/>
      <point x="417.8" y="1414.0" type="line"/>
    </contour>
  </outline>
</glyph>
<glyph name="uni0308" format="2">
  <unicode hex="0308"/>
  <anchor x="158.4" y="1034.4" name="_top"/>
  <anchor x="265.6" y="1387.0" name="top"/>
  <outline>
    <contour>
      <point x="-3.000000000000001" y="1184.2" type="curve" smooth="yes"/>
      <point x="106.8" y="1184.2"/>
      <point x="150.0" y="1249.2"/>
      <point x="150.0" y="1324.0" type="curve" smooth="yes"/>
      <point x="150.0" y="1386.2"/>
      <point x="110.80000000000001" y="1417.8"/>
      <point x="40.8" y="1417.8" type="curve" smooth="yes"/>
      <point x="-68.19999999999999" y="1417.8"/>
      <point x="-112.2" y="1354.3999999999999"/>
      <point x="-112.2" y="1280.3999999999999" type="curve" smooth="yes"/>
      <point x="-112.2" y="1218.2"/>
      <point x="-72.19999999999999" y="1184.2"/>
    </contour>
    <contour>
      <point x="437.6" y="1184.2" type="curve" smooth="yes"/>
      <point x="547.4" y="1184.2"/>
      <point x="590.6" y="1249.2"/>
      <point x="590.6" y="1324.0" type="curve" smooth="yes"/>
      <point x="590.6" y="1386.2"/>
      <point x="551.4" y="1417.8"/>
      <point x="481.40000000000003" y="1417.8" type="curve" smooth="yes"/>
      <point x="372.40000000000003" y="1417.8"/>
      <point x="329.2" y="1354.3999999999999"/>
      <point x="329.2" y="1280.3999999999999" type="curve" smooth="yes"/>
      <point x="329.2" y="1218.2"/>
      <point x="368.40000000000003" y="1184.2"/>
    </contour>
  </outline>
</glyph>
<glyph name="dotbelowcomb" format="2">
  <unicode hex="0323"/>
  <anchor x="-158.4" y="0.0" name="_bottom"/>
  <anchor x="-300.40000000000003" y="-465.0" name="bottom"/>
  <outline>
    <contour>
      <point x="-246.6" y="-340.4" type="curve" smooth="yes"/>
      <point x="-124.39999999999999" y="-340.4"/>
      <point x="-72.4" y="-278.4"/>
      <point x="-72.4" y="-195.6" type="curve" smooth="yes"/>
      <point x="-72.4" y="-130.79999999999998"/>
      <point x="-116.8" y="-96.8"/>
      <point x="-203.0" y="-96.8" type="curve" smooth="yes"/>
      <point x="-326.0" y="-96.8"/>
      <point x="-377.20000000000005" y="-157.2"/>
      <point x="-377.20000000000005" y="-239.2" type="curve" smooth="yes"/>
      <point x="-377.20000000000005" y="-304.0"/>
      <point x="-332.8" y="-340.4"/>
    </contour>
  </outline>
</glyph>
<glyph name="uni0328" format="2">
  <unicode hex="0328"/>
  <anchor x="-158.4" y="0.0" name="_right"/>
  <outline>
    <contour>
      <point x="-320.20000000000005" y="-102.39999999999999" type="curve" smooth="yes"/>
      <point x="-161.20000000000002" y="49.0" type="line"/>
      <point x="-240.2" y="49.0" type="line"/>
      <point x="-392.59999999999997" y="-68.4" type="line" smooth="yes"/>
      <point x="-566.6" y="-200.0"/>
      <point x="-592.4" y="-259.2"/>
      <point x="-592.4" y="-335.0" type="curve" smooth="yes"/>
      <point x="-592.4" y="-406.79999999999995"/>
      <point x="-550.8" y="-465.0"/>
      <point x="-453.20000000000005" y="-465.0" type="curve" smooth="yes"/>
      <point x="-387.2" y="-465.0"/>
      <point x="-328.40000000000003" y="-450.0"/>
      <point x="-240.39999999999998" y="-395.8" type="curve"/>
      <point x="-240.4" y="-322.6" type="line"/>
      <point x="-294.2" y="-348.8"/>
      <point x="-325.4" y="-355.0"/>
      <point x="-364.2" y="-355.0" type="curve" smooth="yes"/>
      <point x="-418.0" y="-355.0"/>
      <point x="-445.0" y="-331.0"/>
      <point x="-445.0" y="-287.59999999999997" type="curve" smooth="yes"/>
      <point x="-445.0" y="-245.2"/>
      <point x="-429.6" y="-207.0"/>
    </contour>
  </outline>
</glyph>
<glyph name="uni0331" format="2">
  <unicode hex="0331"/>
  <anchor x="-158.4" y="0.0" name="_bottom"/>
  <anchor x="-300.40000000000003" y="-465.0" name="bottom"/>
  <outline>
    <contour>
      <point x="-544.4" y="-291.6" type="line"/>
      <point x="49.0" y="-291.6" type="line"/>
      <point x="91.2" y="-153.4" type="line"/>
      <point x="-502.0" y="-153.4" type="line"/>
    </contour>
  </outline>
</glyph>
<glyph name="dagger" format="2">
  <advance width="828.8"/>
  <unicode hex="2020"/>
  <outline>
    <contour>
      <point x="686.1999999999999" y="1192.3999999999999" type="line"/>
      <point x="806.2" y="1464.0" type="line"/>
      <point x="592.8000000000001" y="1464.0" type="line"/>
      <point x="546.6" y="1192.3999999999999" type="line"/>
      <point x="426.0" y="916.0" type="line"/>
      <point x="400.0" y="667.8" type="line"/>
      <point x="509.4" y="667.8" type="line"/>
      <point x="639.0" y="916.0" type="line"/>
    </contour>
    <contour>
      <point x="636.8000000000001" y="1257.0" type="line"/>
      <point x="348.8" y="1284.2" type="line"/>
      <point x="291.8" y="1096.2" type="line"/>
      <point x="595.2" y="1122.6" type="line"/>
      <point x="881.4" y="1096.2" type="line"/>
      <point x="938.6" y="1284.2" type="line"/>
    </contour>
  </outline>
</glyph>
<glyph name="daggerdbl" format="2">
  <advance width="869.2"/>
  <unicode hex="2021"/>
  <outline>
    <contour>
      <point x="660.8" y="1268.2" type="line"/>
      <point x="373.8" y="1294.6" type="line"/>
      <point x="326.0" y="1138.2" type="line"/>
      <point x="621.0" y="1138.1999999999998" type="line"/>
      <point x="915.6" y="1138.2" type="line"/>
      <point x="963.4" y="1294.6" type="line"/>
    </contour>
    <contour>
      <point x="698.0" y="1078.6" type="line"/>
      <point x="745.6" y="1248.3999999999999" type="line"/>
      <point x="827.4" y="1464.0" type="line"/>
      <point x="614.0" y="1464.0" type="line"/>
      <point x="564.0" y="1248.3999999999999" type="line"/>
      <point x="507.6" y="1078.6" type="line"/>
      <point x="461.4" y="914.0" type="line"/>
      <point x="379.6" y="698.2" type="line"/>
      <point x="593.0" y="698.2" type="line"/>
      <point x="643.0" y="914.0" type="line"/>
    </contour>
    <contour>
      <point x="546.8" y="894.0" type="line"/>
      <point x="832.0" y="867.6" type="line"/>
      <point x="880.6" y="1024.0" type="line"/>
      <point x="585.0" y="1024.0" type="line"/>
      <point x="291.6" y="1024.0" type="line"/>
      <point x="243.20000000000002" y="867.6" type="line"/>
    </contour>
  </outline>
</glyph>
<glyph name="guilsinglleft" format="2">
  <advance width="718.8"/>
  <unicode hex="2039"/>
  <outline>
    <contour>
      <point x="310.8" y="536.4" type="line"/>
      <point x="286.6" y="455.59999999999997" type="line"/>
      <point x="731.6" y="881.8000000000001" type="line"/>
      <point x="641.6" y="999.6" type="line"/>
      <point x="123.0" y="607.6" type="line"/>
      <point x="70.6" y="436.4" type="line"/>
      <point x="368.0" y="44.4" type="line"/>
      <point x="498.8" y="115.0" type="line"/>
    </contour>
  </outline>
</glyph>
<glyph name="zerosuperior" format="2">
  <advance width="898.1999999999999"/>
  <unicode hex="2070"/>
  <outline>
    <contour>
      <point x="528.4" y="786.0" type="curve" smooth="yes"/>
      <point x="449.0" y="786.0"/>
      <point x="418.0" y="834.5999999999999"/>
      <point x="418.0" y="915.0" type="curve" smooth="yes"/>
      <point x="418.0" y="1073.2"/>
      <point x="523.6" y="1294.2"/>
      <point x="689.1999999999999" y="1294.2" type="curve" smooth="yes"/>
      <point x="768.6" y="1294.2"/>
      <point x="799.6" y="1245.4"/>
      <point x="799.6" y="1165.0" type="curve" smooth="yes"/>
      <point x="799.6" y="1006.8000000000001"/>
      <point x="694.0" y="786.0"/>
    </contour>
    <contour>
      <point x="709.8" y="1430.0" type="curve" smooth="yes"/>
      <point x="415.0" y="1430.0"/>
      <point x="229.60000000000002" y="1176.0"/>
      <point x="229.60000000000002" y="907.6" type="curve" smooth="yes"/>
      <point x="229.60000000000002" y="745.4"/>
      <point x="325.0" y="650.0"/>
      <point x="507.8" y="650.0" type="curve" smooth="yes"/>
      <point x="802.6" y="650.0"/>
      <point x="988.0" y="904.0"/>
      <point x="988.0" y="1172.6" type="curve" smooth="yes"/>
      <point x="988.0" y="1334.6000000000001"/>
      <point x="892.5999999999999" y="1430.0"/>
    </contour>
  </outline>
</glyph>
<glyph name="uni20A9" format="2">
  <advance width="1350.0"/>
  <unicode hex="20A9"/>
  <outline>
    <contour>
      <point x="922.6" y="1229.2" type="line"/>
      <point x="869.8" y="1229.2" type="line"/>
      <point x="712.8" y="0.0" type="line"/>
      <point x="979.0" y="0.0" type="line"/>
      <point x="1477.8" y="1289.6" type="line"/>
      <point x="1615.2" y="1318.8" type="line"/>
      <point x="1644.4" y="1414.0" type="line"/>
      <point x="1238.2" y="1414.0" type="line"/>
      <point x="1208.1999999999998" y="1318.8" type="line"/>
      <point x="1319.2" y="1292.3999999999999" type="line"/>
      <point x="889.8" y="120.99999999999999" type="line"/>
      <point x="937.4" y="101.0" type="line"/>
      <point x="1105.0" y="1414.0" type="line"/>
      <point x="871.1999999999999" y="1414.0" type="line"/>
      <point x="235.8" y="95.0" type="line"/>
      <point x="310.8" y="102.8" type="line"/>
      <point x="566.6" y="1291.0" type="line"/>
      <point x="675.1999999999999" y="1318.8" type="line"/>
      <point x="705.2" y="1414.0" type="line"/>
      <point x="267.6" y="1414.0" type="line"/>
      <point x="237.8" y="1318.8" type="line"/>
      <point x="346.0" y="1288.0" type="line"/>
      <point x="85.0" y="0.0" type="line"/>
      <point x="349.0" y="0.0" type="line"/>
    </contour>
    <contour>
      <point x="1096.0" y="501.4" type="line"/>
      <point x="1341.4" y="501.4" type="line"/>
      <point x="1377.8" y="619.6" type="line"/>
      <point x="1141.6" y="619.6" type="line"/>
    </contour>
    <contour>
      <point x="311.8" y="619.6" type="line"/>
      <point x="19.4" y="619.6" type="line"/>
      <point x="-17.0" y="501.4" type="line"/>
      <point x="289.0" y="501.4" type="line"/>
    </contour>
    <contour>
      <point x="1221.6000000000001" y="830.1999999999999" type="line"/>
      <point x="1441.8" y="830.1999999999999" type="line"/>
      <point x="1478.2" y="948.4" type="line"/>
      <point x="1267.2" y="948.4" type="line"/>
    </contour>
    <contour>
      <point x="374.4" y="948.4" type="line"/>
      <point x="119.0" y="948.4" type="line"/>
      <point x="82.6" y="830.1999999999999" type="line"/>
      <point x="351.59999999999997" y="830.1999999999999" type="line"/>
    </contour>
  </outline>
</glyph>
<glyph name="f_f" format="2">
  <advance width="1475.6"/>
  <unicode hex="FB00"/>
  <outline>
    <contour>
      <point x="1568.3999999999999" y="1028.0" type="line"/>
      <point x="141.6" y="1028.0" type="line"/>
      <point x="141.6" y="897.2" type="line"/>
      <point x="1568.3999999999999" y="897.2" type="line"/>
    </contour>
    <contour>
      <point x="412.59999999999997" y="956.2" type="curve" smooth="yes"/>
      <point x="238.39999999999998" y="23.4" type="line" smooth="yes"/>
      <point x="186.0" y="-252.0"/>
      <point x="94.60000000000001" y="-341.6"/>
      <point x="-15.200000000000001" y="-341.6" type="curve" smooth="yes"/>
      <point x="-54.6" y="-341.6"/>
      <point x="-80.19999999999999" y="-335.8"/>
      <point x="-98.4" y="-310.8" type="curve" smooth="yes"/>
      <point x="-116.6" y="-285.79999999999995"/>
      <point x="-125.19999999999999" y="-240.2"/>
      <point x="-132.2" y="-159.8" type="curve" smooth="yes"/>
      <point x="-266.6" y="-159.8"/>
      <point x="-323.6" y="-206.0"/>
      <point x="-323.6" y="-297.8" type="curve" smooth="yes"/>
      <point x="-323.6" y="-402.0"/>
      <point x="-255.20000000000002" y="-465.0"/>
      <point x="-101.39999999999999" y="-465.0" type="curve" smooth="yes"/>
      <point x="184.6" y="-465.0"/>
      <point x="395.0" y="-238.79999999999998"/>
      <point x="499.20000000000005" y="255.8" type="curve" smooth="yes"/>
      <point x="663.0" y="1040.8000000000002" type="line" smooth="yes"/>
      <point x="706.6" y="1250.4"/>
      <point x="795.2" y="1334.3999999999999"/>
      <point x="949.1999999999999" y="1334.3999999999999" type="curve" smooth="yes"/>
      <point x="1063.8000000000002" y="1334.3999999999999"/>
      <point x="1126.8" y="1280.6000000000001"/>
      <point x="1126.2" y="1154.2" type="curve"/>
      <point x="1310.2" y="1306.2" type="line"/>
      <point x="1266.6" y="1384.0"/>
      <point x="1170.4" y="1448.8"/>
      <point x="983.6" y="1448.8" type="curve" smooth="yes"/>
      <point x="682.2" y="1448.8"/>
      <point x="470.40000000000003" y="1263.6000000000001"/>
    </contour>
    <contour>
      <point x="1050.6" y="993.4000000000001" type="curve" smooth="yes"/>
      <point x="867.4" y="47.6" type="line" smooth="yes"/>
      <point x="813.4000000000001" y="-233.79999999999998"/>
      <point x="692.2" y="-317.6"/>
      <point x="556.6" y="-317.6" type="curve" smooth="yes"/>
      <point x="438.0" y="-317.6"/>
      <point x="360.0" y="-258.40000000000003"/>
      <point x="340.2" y="-107.8" type="curve"/>
      <point x="177.4" y="-244.8" type="line"/>
      <point x="224.0" y="-376.8"/>
      <point x="334.0" y="-441.0"/>
      <point x="518.4" y="-441.0" type="curve" smooth="yes"/>
      <point x="818.5999999999999" y="-441.0"/>
      <point x="1008.6" y="-256.0"/>
      <point x="1117.8" y="237.8" type="curve" smooth="yes"/>
      <point x="1301.0" y="1078.0" type="line" smooth="yes"/>
      <point x="1345.8" y="1286.4"/>
      <point x="1433.1999999999998" y="1371.6"/>
      <point x="1587.1999999999998" y="1371.6" type="curve" smooth="yes"/>
      <point x="1630.6000000000001" y="1371.6"/>
      <point x="1657.2" y="1367.8000000000002"/>
      <point x="1680.0" y="1346.1999999999998" type="curve" smooth="yes"/>
      <point x="1702.8" y="1324.6"/>
      <point x="1714.8" y="1279.0"/>
      <point x="1724.8" y="1195.2" type="curve" smooth="yes"/>
      <point x="1864.6" y="1195.2"/>
      <point x="1920.6" y="1243.4"/>
      <point x="1920.6" y="1332.0" type="curve" smooth="yes"/>
      <point x="1920.6" y="1425.2"/>
      <point x="1831.8" y="1486.0"/>
      <point x="1629.6000000000001" y="1486.0" type="curve" smooth="yes"/>
      <point x="1328.2" y="1486.0"/>
      <point x="1110.4" y="1299.4"/>
    </contour>
  </outline>
</glyph>
<glyph name="f_f_l" format="2">
  <advance width="2117.6"/>
  <unicode hex="FB04"/>
  <outline>
    <contour>
      <point x="141.8" y="897.2" type="line"/>
      <point x="1546.2" y="897.2" type="line"/>
      <point x="1546.1999999999998" y="1028.0" type="line"/>
      <point x="141.8" y="1028.0" type="line"/>
    </contour>
    <contour>
      <point x="177.6" y="-244.8" type="line"/>
      <point x="224.20000000000002" y="-376.8"/>
      <point x="334.2" y="-441.0"/>
      <point x="518.6" y="-441.0" type="curve" smooth="yes"/>
      <point x="818.8" y="-441.0"/>
      <point x="1008.8000000000001" y="-256.0"/>
      <point x="1118.0" y="237.8" type="curve" smooth="yes"/>
      <point x="1301.2" y="1078.0" type="line" smooth="yes"/>
      <point x="1345.8" y="1285.2"/>
      <point x="1439.0" y="1371.6000000000001"/>
      <point x="1610.6" y="1371.6000000000001" type="curve" smooth="yes"/>
      <point x="1746.0" y="1371.6000000000001"/>
      <point x="1821.8" y="1326.4"/>
      <point x="1818.6" y="1218.0" type="curve" smooth="yes"/>
      <point x="1491.6000000000001" y="164.2" type="line" smooth="yes"/>
      <point x="1445.8" y="17.6"/>
      <point x="1474.6" y="-22.0"/>
      <point x="1580.3999999999999" y="-22.0" type="curve" smooth="yes"/>
      <point x="1698.3999999999999" y="-22.0"/>
      <point x="1851.8" y="19.599999999999998"/>
      <point x="2071.8" y="189.6" type="curve"/>
      <point x="2024.0" y="269.4" type="line"/>
      <point x="1914.8" y="200.2"/>
      <point x="1813.3999999999999" y="171.0"/>
      <point x="1724.0" y="165.2" type="curve"/>
      <point x="2135.6" y="1486.0" type="line"/>
      <point x="2089.0" y="1486.0" type="line"/>
      <point x="1849.2" y="1396.6" type="line"/>
      <point x="1972.0" y="1375.6000000000001" type="line"/>
      <point x="1918.4" y="1436.0"/>
      <point x="1825.8" y="1486.0"/>
      <point x="1653.4" y="1486.0" type="curve" smooth="yes"/>
      <point x="1338.6000000000001" y="1486.0"/>
      <point x="1113.0" y="1315.0"/>
      <point x="1050.8000000000002" y="993.4" type="curve" smooth="yes"/>
      <point x="867.6" y="47.6" type="line" smooth="yes"/>
      <point x="813.5999999999999" y="-233.79999999999998"/>
      <point x="692.4" y="-317.6"/>
      <point x="556.8" y="-317.6" type="curve" smooth="yes"/>
      <point x="438.20000000000005" y="-317.6"/>
      <point x="360.20000000000005" y="-258.40000000000003"/>
      <point x="340.4" y="-107.8" type="curve"/>
    </contour>
    <contour>
      <point x="499.20000000000005" y="255.8" type="curve" smooth="yes"/>
      <point x="663.1999999999999" y="1040.8000000000002" type="line" smooth="yes"/>
      <point x="706.8" y="1250.4"/>
      <point x="795.4" y="1334.3999999999999"/>
      <point x="949.4" y="1334.3999999999999" type="curve" smooth="yes"/>
      <point x="1064.0" y="1334.3999999999999"/>
      <point x="1127.0" y="1280.6000000000001"/>
      <point x="1126.4" y="1154.2" type="curve"/>
      <point x="1310.4" y="1306.2" type="line"/>
      <point x="1266.8" y="1384.0"/>
      <point x="1170.6" y="1448.8"/>
      <point x="983.8" y="1448.8" type="curve" smooth="yes"/>
      <point x="682.4000000000001" y="1448.8"/>
      <point x="470.6" y="1263.6000000000001"/>
      <point x="412.8" y="956.2" type="curve" smooth="yes"/>
      <point x="238.39999999999998" y="23.4" type="line" smooth="yes"/>
      <point x="185.8" y="-252.0"/>
      <point x="94.60000000000001" y="-341.6"/>
      <point x="-15.200000000000001" y="-341.6" type="curve" smooth="yes"/>
      <point x="-54.6" y="-341.6"/>
      <point x="-80.19999999999999" y="-335.8"/>
      <point x="-98.4" y="-310.8" type="curve" smooth="yes"/>
      <point x="-116.6" y="-285.79999999999995"/>
      <point x="-125.19999999999999" y="-240.2"/>
      <point x="-132.2" y="-159.8" type="curve" smooth="yes"/>
      <point x="-266.6" y="-159.8"/>
      <point x="-323.6" y="-206.0"/>
      <point x="-323.6" y="-297.8" type="curve" smooth="yes"/>
      <point x="-323.6" y="-402.0"/>
      <point x="-255.20000000000002" y="-465.0"/>
      <point x="-101.39999999999999" y="-465.0" type="curve" smooth="yes"/>
      <point x="184.6" y="-465.0"/>
      <point x="394.8" y="-238.6"/>
    </contour>
  </outline>
</glyph>
<glyph name="Euro.lf" format="2">
  <advance width="1542.3999999999999"/>
  <outline>
    <contour>
      <point x="1104.4" y="602.0" type="line"/>
      <point x="138.4" y="602.0" type="line"/>
      <point x="102.2" y="483.8" type="line"/>
      <point x="1068.0" y="483.8" type="line"/>
    </contour>
    <contour>
      <point x="1206.4" y="933.1999999999999" type="line"/>
      <point x="239.6" y="933.1999999999999" type="line"/>
      <point x="203.39999999999998" y="815.0" type="line"/>
      <point x="1170.0" y="815.0" type="line"/>
    </contour>
    <contour>
      <point x="1165.6" y="1287.2" type="curve" smooth="yes"/>
      <point x="1317.0" y="1287.2"/>
      <point x="1443.2" y="1107.6000000000001"/>
      <point x="1466.8" y="1107.6000000000001" type="curve" smooth="yes"/>
      <point x="1565.8000000000002" y="1107.6000000000001"/>
      <point x="1614.4" y="1188.8"/>
      <point x="1614.4" y="1252.8" type="curve" smooth="yes"/>
      <point x="1614.4" y="1350.0"/>
      <point x="1512.0" y="1436.0"/>
      <point x="1217.0" y="1436.0" type="curve" smooth="yes"/>
      <point x="596.4" y="1436.0"/>
      <point x="356.4" y="917.4"/>
      <point x="356.4" y="468.2" type="curve" smooth="yes"/>
      <point x="356.4" y="142.6"/>
      <point x="536.0" y="-22.0"/>
      <point x="887.2" y="-22.0" type="curve" smooth="yes"/>
      <point x="1212.8" y="-22.0"/>
      <point x="1353.8000000000002" y="81.0"/>
      <point x="1353.8000000000002" y="196.4" type="curve" smooth="yes"/>
      <point x="1353.8000000000002" y="261.8"/>
      <point x="1312.4" y="305.6"/>
      <point x="1242.6" y="305.6" type="curve" smooth="yes"/>
      <point x="1210.3999999999999" y="305.6"/>
      <point x="1068.2" y="126.8"/>
      <point x="892.8" y="126.8" type="curve" smooth="yes"/>
      <point x="715.8000000000001" y="126.8"/>
      <point x="604.0" y="220.79999999999998"/>
      <point x="604.0" y="448.0" type="curve" smooth="yes"/>
      <point x="604.0" y="846.2"/>
      <point x="790.6" y="1287.2"/>
    </contour>
  </outline>
</glyph>
<glyph name="cent.lf" format="2">
  <advance width="1136.0"/>
  <outline>
    <contour>
      <point x="178.8" y="0.0" type="line"/>
      <point x="309.59999999999997" y="0.0" type="line"/>
      <point x="1187.6000000000001" y="1414.0" type="line"/>
      <point x="1056.8000000000002" y="1414.0" type="line"/>
    </contour>
    <contour>
      <point x="782.0" y="1120.8000000000002" type="curve" smooth="yes"/>
      <point x="815.4" y="1120.8000000000002"/>
      <point x="854.0" y="1085.6"/>
      <point x="898.0" y="1023.5999999999999" type="curve" smooth="yes"/>
      <point x="942.0" y="961.6"/>
      <point x="975.4" y="924.8"/>
      <point x="999.8" y="924.8000000000001" type="curve" smooth="yes"/>
      <point x="1069.0" y="924.8"/>
      <point x="1140.6" y="986.0"/>
      <point x="1140.6" y="1064.2" type="curve" smooth="yes"/>
      <point x="1140.6" y="1166.8000000000002"/>
      <point x="1034.1999999999998" y="1244.8"/>
      <point x="828.2" y="1244.8" type="curve" smooth="yes"/>
      <point x="437.40000000000003" y="1244.8"/>
      <point x="166.79999999999998" y="930.6"/>
      <point x="166.79999999999998" y="537.5999999999999" type="curve" smooth="yes"/>
      <point x="166.79999999999998" y="289.20000000000005"/>
      <point x="293.8" y="172.8"/>
      <point x="547.6" y="172.8" type="curve" smooth="yes"/>
      <point x="786.2" y="172.8"/>
      <point x="939.0" y="301.2"/>
      <point x="1048.2" y="553.1999999999999" type="curve"/>
      <point x="944.5999999999999" y="553.1999999999999" type="line"/>
      <point x="855.2" y="403.6"/>
      <point x="748.8000000000001" y="347.40000000000003"/>
      <point x="617.6" y="347.40000000000003" type="curve" smooth="yes"/>
      <point x="473.0" y="347.40000000000003"/>
      <point x="405.0" y="404.40000000000003"/>
      <point x="405.0" y="588.0" type="curve" smooth="yes"/>
      <point x="405.0" y="895.6"/>
      <point x="560.8000000000001" y="1120.8000000000002"/>
    </contour>
  </outline>
</glyph>
<glyph name="colonmonetary.lf" format="2">
  <advance width="1260.3999999999999"/>
  <outline>
    <contour>
      <point x="981.8000000000001" y="1295.2" type="curve" smooth="yes"/>
      <point x="1112.6" y="1295.2"/>
      <point x="1218.8" y="1089.8"/>
      <point x="1241.8" y="1089.8" type="curve" smooth="yes"/>
      <point x="1318.6" y="1089.8"/>
      <point x="1390.2" y="1169.6000000000001"/>
      <point x="1390.2" y="1251.8" type="curve" smooth="yes"/>
      <point x="1390.2" y="1357.0"/>
      <point x="1284.0" y="1436.0"/>
      <point x="1009.9999999999999" y="1436.0" type="curve" smooth="yes"/>
      <point x="449.59999999999997" y="1436.0"/>
      <point x="139.39999999999998" y="873.8000000000001"/>
      <point x="139.39999999999998" y="407.2" type="curve" smooth="yes"/>
      <point x="139.39999999999998" y="127.6"/>
      <point x="287.0" y="-22.0"/>
      <point x="544.8" y="-22.0" type="curve" smooth="yes"/>
      <point x="710.6" y="-22.0"/>
      <point x="835.5999999999999" y="14.4"/>
      <point x="1010.4" y="121.19999999999999" type="curve"/>
      <point x="1047.2" y="243.20000000000002" type="line"/>
      <point x="901.0" y="185.4"/>
      <point x="821.2" y="169.8"/>
      <point x="698.2" y="169.8" type="curve" smooth="yes"/>
      <point x="505.0" y="169.8"/>
      <point x="393.8" y="248.0"/>
      <point x="393.8" y="452.0" type="curve" smooth="yes"/>
      <point x="393.8" y="773.8"/>
      <point x="598.2" y="1295.2"/>
    </contour>
    <contour>
      <point x="991.0" y="1345.6" type="line"/>
      <point x="1142.1999999999998" y="1627.6" type="line"/>
      <point x="1020.8" y="1627.6" type="line"/>
      <point x="869.5999999999999" y="1345.6" type="line"/>
    </contour>
    <contour>
      <point x="1248.1999999999998" y="1345.6000000000001" type="line"/>
      <point x="1399.3999999999999" y="1627.6" type="line"/>
      <point x="1278.0" y="1627.6" type="line"/>
      <point x="1126.8000000000002" y="1345.6000000000001" type="line"/>
    </contour>
    <contour>
      <point x="91.2" y="-213.8" type="line"/>
      <point x="212.8" y="-213.8" type="line"/>
      <point x="422.8" y="177.4" type="line"/>
      <point x="301.20000000000005" y="177.4" type="line"/>
    </contour>
    <contour>
      <point x="348.4" y="-213.8" type="line"/>
      <point x="470.0" y="-213.8" type="line"/>
      <point x="635.1999999999999" y="93.4" type="line"/>
      <point x="513.6" y="93.4" type="line"/>
    </contour>
  </outline>
</glyph>
<glyph name="five.lf" format="2">
  <advance width="1136.4"/>
  <outline>
    <contour>
      <point x="509.2" y="1194.0" type="line"/>
      <point x="1130.4" y="1194.0" type="line"/>
      <point x="1275.1999999999998" y="1453.8" type="line"/>
      <point x="983.0" y="1414.0" type="line"/>
      <point x="550.6" y="1414.0" type="line"/>
      <point x="211.0" y="748.2" type="line"/>
      <point x="659.0" y="674.8"/>
      <point x="788.2" y="579.8"/>
      <point x="788.2" y="435.4" type="curve" smooth="yes"/>
      <point x="788.2" y="227.0"/>
      <point x="632.8" y="117.6"/>
      <point x="413.8" y="117.6" type="curve" smooth="yes"/>
      <point x="298.6" y="117.6"/>
      <point x="184.0" y="330.4"/>
      <point x="147.79999999999998" y="330.4" type="curve" smooth="yes"/>
      <point x="68.80000000000001" y="330.4"/>
      <point x="-1.5999999999999996" y="267.2"/>
      <point x="-1.5999999999999996" y="178.6" type="curve" smooth="yes"/>
      <point x="-1.5999999999999996" y="58.599999999999994"/>
      <point x="124.19999999999999" y="-22.0"/>
      <point x="374.20000000000005" y="-22.0" type="curve" smooth="yes"/>
      <point x="740.2" y="-22.0"/>
      <point x="1010.6" y="189.4"/>
      <point x="1010.6" y="510.4" type="curve" smooth="yes"/>
      <point x="1010.6" y="712.0"/>
      <point x="878.6" y="852.0"/>
      <point x="407.0" y="947.8000000000001" type="curve"/>
      <point x="379.2" y="819.1999999999999" type="line"/>
      <point x="655.8000000000001" y="1289.6000000000001" type="line"/>
    </contour>
  </outline>
</glyph>
<glyph name="florin.lf" format="2">
  <advance width="1305.2"/>
  <outline>
    <contour>
      <point x="237.0" y="654.0" type="line"/>
      <point x="1174.2" y="654.0" type="line"/>
      <point x="1174.2" y="767.4" type="line"/>
      <point x="237.0" y="767.4" type="line"/>
    </contour>
    <contour>
      <point x="154.8" y="-247.4" type="curve" smooth="yes"/>
      <point x="459.4" y="-247.4"/>
      <point x="678.6" y="-74.4"/>
      <point x="743.6" y="283.6" type="curve" smooth="yes"/>
      <point x="876.6" y="991.0" type="line" smooth="yes"/>
      <point x="921.8000000000001" y="1222.2"/>
      <point x="1008.6" y="1311.2"/>
      <point x="1129.8" y="1311.2" type="curve" smooth="yes"/>
      <point x="1274.8" y="1311.2"/>
      <point x="1341.2" y="1166.8000000000002"/>
      <point x="1361.2" y="1166.8000000000002" type="curve" smooth="yes"/>
      <point x="1428.2" y="1166.8000000000002"/>
      <point x="1471.8" y="1216.6"/>
      <point x="1471.8" y="1282.8" type="curve" smooth="yes"/>
      <point x="1471.8" y="1376.2"/>
      <point x="1388.3999999999999" y="1438.3999999999999"/>
      <point x="1188.8" y="1438.3999999999999" type="curve" smooth="yes"/>
      <point x="875.8" y="1438.3999999999999"/>
      <point x="679.4" y="1254.0"/>
      <point x="616.0" y="907.4000000000001" type="curve" smooth="yes"/>
      <point x="488.4" y="233.0" type="line" smooth="yes"/>
      <point x="439.0" y="-23.6"/>
      <point x="345.0" y="-120.19999999999999"/>
      <point x="210.20000000000002" y="-120.19999999999999" type="curve" smooth="yes"/>
      <point x="77.6" y="-120.19999999999999"/>
      <point x="18.200000000000003" y="24.200000000000003"/>
      <point x="-1.5999999999999979" y="24.200000000000003" type="curve" smooth="yes"/>
      <point x="-68.6" y="24.200000000000003"/>
      <point x="-112.19999999999999" y="-25.599999999999998"/>
      <point x="-112.19999999999999" y="-91.8" type="curve" smooth="yes"/>
      <point x="-112.19999999999999" y="-185.2"/>
      <point x="-41.2" y="-247.4"/>
    </contour>
  </outline>
</glyph>
<glyph name="franc.lf" format="2">
  <advance width="1369.2"/>
  <outline>
    <contour>
      <point x="1481.8" y="1496.0" type="line"/>
      <point x="1379.0" y="1414.0" type="line"/>
      <point x="743.2" y="1414.0" type="line"/>
      <point x="697.8" y="1249.0" type="line"/>
      <point x="1406.2" y="1249.0" type="line"/>
      <point x="1326.8" y="1370.4" type="line"/>
      <point x="1294.6000000000001" y="1003.6" type="line"/>
      <point x="1435.0" y="1003.6" type="line"/>
      <point x="1588.8" y="1496.0" type="line"/>
    </contour>
    <contour>
      <point x="1024.3999999999999" y="596.0" type="line"/>
      <point x="166.0" y="596.0" type="line"/>
      <point x="129.8" y="477.8" type="line"/>
      <point x="988.0" y="477.8" type="line"/>
    </contour>
    <contour>
      <point x="1128.8" y="935.1999999999999" type="line"/>
      <point x="269.59999999999997" y="935.1999999999999" type="line"/>
      <point x="233.4" y="817.0" type="line"/>
      <point x="1092.6000000000001" y="817.0" type="line"/>
    </contour>
    <contour>
      <point x="595.4000000000001" y="1261.0" type="line"/>
      <point x="257.59999999999997" y="152.79999999999998" type="line"/>
      <point x="22.8" y="95.2" type="line"/>
      <point x="-6.400000000000001" y="0.0" type="line"/>
      <point x="689.1999999999999" y="0.0" type="line"/>
      <point x="717.4" y="95.2" type="line"/>
      <point x="515.6" y="153.0" type="line"/>
      <point x="900.1999999999999" y="1414.0" type="line"/>
      <point x="424.59999999999997" y="1414.0" type="line"/>
      <point x="396.4" y="1318.8" type="line"/>
    </contour>
  </outline>
</glyph>
<glyph name="gravecomb.case" format="2">
  <anchor x="274.59999999999997" y="1414.0" name="_UCtop"/>
  <anchor x="435.6" y="1941.0" name="UCtop"/>
  <outline>
    <contour>
      <point x="382.0" y="1544.0" type="line"/>
      <point x="278.0" y="1870.0" type="line"/>
      <point x="47.6" y="1870.0" type="line"/>
      <point x="36.599999999999994" y="1824.8" type="line"/>
      <point x="267.0" y="1544.0" type="line"/>
    </contour>
  </outline>
</glyph>
<glyph name="hookabovecomb.case" format="2">
  <anchor x="274.59999999999997" y="1414.0" name="_UCtop"/>
  <anchor x="413.6" y="1870.0" name="UCtop"/>
  <outline>
    <contour>
      <point x="184.2" y="1773.4" type="line"/>
      <point x="382.8" y="1774.1999999999998"/>
      <point x="420.0" y="1751.8"/>
      <point x="420.0" y="1709.8" type="curve" smooth="yes"/>
      <point x="420.0" y="1668.8"/>
      <point x="398.8" y="1634.2"/>
      <point x="235.0" y="1602.8" type="curve"/>
      <point x="232.0" y="1530.6" type="line"/>
      <point x="516.4" y="1576.1999999999998"/>
      <point x="580.4" y="1649.8"/>
      <point x="580.4" y="1766.0" type="curve" smooth="yes"/>
      <point x="580.4" y="1848.8000000000002"/>
      <point x="518.6" y="1910.0"/>
      <point x="225.8" y="1913.2" type="curve"/>
    </contour>
  </outline>
</glyph>
<glyph name="numbersign.lf" format="2">
  <advance width="1387.6000000000001"/>
  <outline>
    <contour>
      <point x="982.8000000000001" y="1414.0" type="line"/>
      <point x="837.0" y="1414.0" type="line"/>
      <point x="96.2" y="0.0" type="line"/>
      <point x="242.0" y="0.0" type="line"/>
    </contour>
    <contour>
      <point x="1412.8" y="1414.0" type="line"/>
      <point x="1267.0" y="1414.0" type="line"/>
      <point x="526.2" y="0.0" type="line"/>
      <point x="672.0" y="0.0" type="line"/>
    </contour>
    <contour>
      <point x="1400.4" y="870.1999999999999" type="line"/>
      <point x="1439.2" y="999.4" type="line"/>
      <point x="321.0" y="999.4" type="line"/>
      <point x="281.4" y="870.1999999999999" type="line"/>
    </contour>
    <contour>
      <point x="1192.8" y="425.0" type="line"/>
      <point x="1232.4" y="553.4" type="line"/>
      <point x="106.19999999999999" y="553.4" type="line"/>
      <point x="66.6" y="425.0" type="line"/>
    </contour>
  </outline>
</glyph>
<glyph name="two.lf" format="2">
  <advance width="1313.6000000000001"/>
  <outline>
    <contour>
      <point x="339.4" y="897.1999999999999" type="line"/>
      <point x="429.20000000000005" y="1112.2"/>
      <point x="532.8000000000001" y="1213.2"/>
      <point x="714.6" y="1213.2" type="curve" smooth="yes"/>
      <point x="886.8000000000001" y="1213.2"/>
      <point x="941.4" y="1129.8"/>
      <point x="941.4" y="1027.8000000000002" type="curve" smooth="yes"/>
      <point x="941.4" y="908.8"/>
      <point x="901.0" y="827.6"/>
      <point x="650.1999999999999" y="620.2" type="curve" smooth="yes"/>
      <point x="78.0" y="142.8" type="line"/>
      <point x="35.0" y="0.0" type="line"/>
      <point x="825.0" y="0.0" type="line"/>
      <point x="843.6" y="-73.2" type="line"/>
      <point x="975.4000000000001" y="-73.2" type="line"/>
      <point x="1209.1999999999998" y="452.8" type="line"/>
      <point x="1074.2" y="452.8" type="line"/>
      <point x="833.2" y="172.2" type="line"/>
      <point x="1009.8" y="229.2" type="line"/>
      <point x="268.2" y="229.2" type="line"/>
      <point x="208.20000000000002" y="119.39999999999999" type="line"/>
      <point x="778.2" y="529.4" type="line" smooth="yes"/>
      <point x="1123.6000000000001" y="777.0"/>
      <point x="1208.6000000000001" y="913.2"/>
      <point x="1208.6000000000001" y="1099.0" type="curve" smooth="yes"/>
      <point x="1208.6000000000001" y="1283.6000000000001"/>
      <point x="1077.6" y="1436.0"/>
      <point x="791.8" y="1436.0" type="curve" smooth="yes"/>
      <point x="489.59999999999997" y="1436.0"/>
      <point x="309.2" y="1267.4"/>
      <point x="206.2" y="941.2" type="curve"/>
    </contour>
  </outline>
</glyph>
<glyph name="uni0302_acutecomb.case" format="2">
  <anchor x="274.59999999999997" y="1414.0" name="_UCtop"/>
  <outline>
    <contour>
      <point x="655.6" y="1741.0" type="line"/>
      <point x="782.6" y="1741.0" type="line"/>
      <point x="1099.0" y="1967.0" type="line"/>
      <point x="1111.8" y="2008.0" type="line"/>
      <point x="857.4" y="2008.0" type="line"/>
    </contour>
    <contour>
      <point x="-28.200000000000003" y="1544.0" type="line"/>
      <point x="145.6" y="1544.0" type="line"/>
      <point x="417.6" y="1757.8" type="line"/>
      <point x="362.6" y="1757.8" type="line"/>
      <point x="504.2" y="1544.0" type="line"/>
      <point x="656.2" y="1544.0" type="line"/>
      <point x="508.4" y="1870.0" type="line"/>
      <point x="318.0" y="1870.0" type="line"/>
    </contour>
  </outline>
</glyph>
<glyph name="uni0302_gravecomb" format="2">
  <anchor x="158.4" y="1034.4" name="_top"/>
  <outline>
    <contour>
      <point x="-42.8" y="1335.0" type="line"/>
      <point x="-115.2" y="1602.0" type="line"/>
      <point x="-337.8" y="1602.0" type="line"/>
      <point x="-347.40000000000003" y="1561.0" type="line"/>
      <point x="-149.8" y="1335.0" type="line"/>
    </contour>
    <contour>
      <point x="-152.2" y="1138.0" type="line"/>
      <point x="21.6" y="1138.0" type="line"/>
      <point x="293.6" y="1351.8000000000002" type="line"/>
      <point x="238.6" y="1351.8000000000002" type="line"/>
      <point x="380.2" y="1138.0" type="line"/>
      <point x="532.2" y="1138.0" type="line"/>
      <point x="384.4" y="1464.0" type="line"/>
      <point x="194.0" y="1464.0" type="line"/>
    </contour>
  </outline>
</glyph>
<glyph name="uni0306.case" format="2">
  <anchor x="274.59999999999997" y="1414.0" name="_UCtop"/>
  <anchor x="413.6" y="1870.0" name="UCtop"/>
  <outline>
    <contour>
      <point x="350.0" y="1690.1999999999998" type="curve" smooth="yes"/>
      <point x="231.4" y="1690.1999999999998"/>
      <point x="195.0" y="1730.8"/>
      <point x="207.0" y="1870.0" type="curve"/>
      <point x="102.39999999999999" y="1870.0" type="line"/>
      <point x="67.39999999999999" y="1637.0"/>
      <point x="125.8" y="1539.2"/>
      <point x="322.0" y="1539.2" type="curve" smooth="yes"/>
      <point x="505.59999999999997" y="1539.2"/>
      <point x="610.8" y="1616.2"/>
      <point x="724.0" y="1870.0" type="curve"/>
      <point x="603.4" y="1870.0" type="line"/>
      <point x="532.1999999999999" y="1731.6"/>
      <point x="468.4" y="1690.1999999999998"/>
    </contour>
  </outline>
</glyph>
<glyph name="uni0306_gravecomb" format="2">
  <anchor x="158.4" y="1034.4" name="_top"/>
  <outline>
    <contour>
      <point x="275.59999999999997" y="1315.0" type="line"/>
      <point x="213.0" y="1598.0" type="line"/>
      <point x="29.599999999999998" y="1598.0" type="line"/>
      <point x="23.0" y="1568.6000000000001" type="line"/>
      <point x="193.0" y="1315.0" type="line"/>
    </contour>
    <contour>
      <point x="203.4" y="1213.1999999999998" type="curve" smooth="yes"/>
      <point x="80.0" y="1213.1999999999998"/>
      <point x="49.800000000000004" y="1249.2"/>
      <point x="53.4" y="1336.0" type="curve"/>
      <point x="-46.6" y="1336.0" type="line"/>
      <point x="-69.60000000000001" y="1142.0"/>
      <point x="9.2" y="1099.4"/>
      <point x="187.20000000000002" y="1099.4" type="curve" smooth="yes"/>
      <point x="359.0" y="1099.4"/>
      <point x="452.0" y="1142.2"/>
      <point x="547.0" y="1336.0" type="curve"/>
      <point x="429.0" y="1336.0" type="line"/>
      <point x="379.6" y="1248.8"/>
      <point x="319.8" y="1213.1999999999998"/>
    </contour>
  </outline>
</glyph>
<glyph name="uni0306_hookabovecomb.case" format="2">
  <anchor x="274.59999999999997" y="1414.0" name="_UCtop"/>
  <outline>
    <contour>
      <point x="327.40000000000003" y="1619.1999999999998" type="curve" smooth="yes"/>
      <point x="204.0" y="1619.1999999999998"/>
      <point x="173.8" y="1655.1999999999998"/>
      <point x="177.39999999999998" y="1742.0" type="curve"/>
      <point x="77.4" y="1742.0" type="line"/>
      <point x="54.4" y="1548.0"/>
      <point x="133.2" y="1503.8"/>
      <point x="311.2" y="1503.8" type="curve" smooth="yes"/>
      <point x="483.0" y="1503.8"/>
      <point x="576.0" y="1548.2"/>
      <point x="671.0" y="1742.0" type="curve"/>
      <point x="553.0" y="1742.0" type="line"/>
      <point x="503.6" y="1654.8"/>
      <point x="443.8" y="1619.1999999999998"/>
    </contour>
    <contour>
      <point x="327.2" y="1719.0" type="line"/>
      <point x="531.2" y="1752.4"/>
      <point x="599.8" y="1819.0"/>
      <point x="599.8" y="1921.6000000000001" type="curve" smooth="yes"/>
      <point x="599.8" y="2000.4"/>
      <point x="540.4000000000001" y="2049.8"/>
      <point x="331.0" y="2056.7999999999997" type="curve"/>
      <point x="299.8" y="1937.2" type="line"/>
      <point x="452.4" y="1934.8"/>
      <point x="484.6" y="1916.2"/>
      <point x="484.6" y="1885.4" type="curve" smooth="yes"/>
      <point x="484.6" y="1847.6000000000001"/>
      <point x="460.0" y="1818.0"/>
      <point x="330.2" y="1792.0" type="curve"/>
    </contour>
  </outline>
</glyph>
<glyph name="uni0306_tildecomb" format="2">
  <anchor x="158.4" y="1034.4" name="_top"/>
  <outline>
    <contour>
      <point x="203.4" y="1213.1999999999998" type="curve" smooth="yes"/>
      <point x="80.0" y="1213.1999999999998"/>
      <point x="49.800000000000004" y="1249.2"/>
      <point x="53.4" y="1336.0" type="curve"/>
      <point x="-46.6" y="1336.0" type="line"/>
      <point x="-69.60000000000001" y="1142.0"/>
      <point x="9.2" y="1099.4"/>
      <point x="187.20000000000002" y="1099.4" type="curve" smooth="yes"/>
      <point x="359.0" y="1099.4"/>
      <point x="452.0" y="1142.2"/>
      <point x="547.0" y="1336.0" type="curve"/>
      <point x="429.0" y="1336.0" type="line"/>
      <point x="379.6" y="1248.8"/>
      <point x="319.8" y="1213.1999999999998"/>
    </contour>
    <contour>
      <point x="620.4" y="1598.0" type="curve"/>
      <point x="508.6" y="1598.0" type="line"/>
      <point x="472.40000000000003" y="1517.1999999999998"/>
      <point x="450.0" y="1502.0"/>
      <point x="410.40000000000003" y="1502.0" type="curve" smooth="yes"/>
      <point x="345.2" y="1502.0"/>
      <point x="275.8" y="1600.3999999999999"/>
      <point x="180.2" y="1600.3999999999999" type="curve" smooth="yes"/>
      <point x="77.6" y="1600.3999999999999"/>
      <point x="29.799999999999997" y="1558.0"/>
      <point x="-37.8" y="1390.0" type="curve"/>
      <point x="74.0" y="1390.0" type="line"/>
      <point x="110.2" y="1470.8000000000002"/>
      <point x="132.6" y="1486.0"/>
      <point x="172.2" y="1486.0" type="curve" smooth="yes"/>
      <point x="236.6" y="1486.0"/>
      <point x="306.8" y="1387.6"/>
      <point x="402.40000000000003" y="1387.6" type="curve" smooth="yes"/>
      <point x="505.0" y="1387.6"/>
      <point x="552.8" y="1430.0"/>
    </contour>
  </outline>
</glyph>
<glyph name="uni0307.case" format="2">
  <anchor x="274.59999999999997" y="1414.0" name="_UCtop"/>
  <anchor x="363.6" y="1707.0" name="_mid"/>
  <anchor x="389.6" y="1793.0" name="UCtop"/>
  <outline>
    <contour>
      <point x="342.20000000000005" y="1585.2" type="curve" smooth="yes"/>
      <point x="464.40000000000003" y="1585.2"/>
      <point x="515.6" y="1647.2"/>
      <point x="515.6" y="1730.0" type="curve" smooth="yes"/>
      <point x="515.6" y="1794.8"/>
      <point x="471.2" y="1828.8"/>
      <point x="385.0" y="1828.8" type="curve" smooth="yes"/>
      <point x="262.79999999999995" y="1828.8"/>
      <point x="210.8" y="1768.3999999999999"/>
      <point x="210.8" y="1686.3999999999999" type="curve" smooth="yes"/>
      <point x="210.8" y="1621.6"/>
      <point x="255.99999999999997" y="1585.2"/>
    </contour>
  </outline>
</glyph>
<glyph name="uni20A6.lf.1" format="2">
  <advance width="1569.0"/>
  <outline>
    <contour>
      <point x="1478.0" y="619.6" type="line"/>
      <point x="162.0" y="619.6" type="line"/>
      <point x="125.8" y="501.4" type="line"/>
      <point x="1441.8" y="501.4" type="line"/>
    </contour>
    <contour>
      <point x="1578.3999999999999" y="948.4" type="line"/>
      <point x="261.6" y="948.4" type="line"/>
      <point x="225.39999999999998" y="830.1999999999999" type="line"/>
      <point x="1542.2" y="830.1999999999999" type="line"/>
    </contour>
    <contour>
      <point x="1500.3999999999999" y="1289.4" type="line"/>
      <point x="1664.0" y="1318.8" type="line"/>
      <point x="1692.6" y="1414.0" type="line"/>
      <point x="1221.6000000000001" y="1414.0" type="line"/>
      <point x="1192.2" y="1318.8" type="line"/>
      <point x="1338.0" y="1290.2" type="line"/>
      <point x="990.4" y="144.8" type="line"/>
      <point x="1041.6" y="176.4" type="line"/>
      <point x="888.4" y="1414.0" type="line"/>
      <point x="443.40000000000003" y="1414.0" type="line"/>
      <point x="414.2" y="1319.6000000000001" type="line"/>
      <point x="550.2" y="1281.4" type="line"/>
      <point x="197.2" y="124.6" type="line"/>
      <point x="33.4" y="95.2" type="line"/>
      <point x="5.0" y="0.0" type="line"/>
      <point x="475.40000000000003" y="0.0" type="line"/>
      <point x="504.40000000000003" y="95.2" type="line"/>
      <point x="358.4" y="123.8" type="line"/>
      <point x="726.2" y="1332.0" type="line"/>
      <point x="671.0" y="1308.8" type="line"/>
      <point x="831.8000000000001" y="0.0" type="line"/>
      <point x="1107.0" y="0.0" type="line"/>
    </contour>
  </outline>
</glyph>
<glyph name="uni20B1.lf" format="2">
  <advance width="1561.2"/>
  <outline>
    <contour>
      <point x="603.6" y="1261.0" type="line"/>
      <point x="265.79999999999995" y="152.79999999999998" type="line"/>
      <point x="31.0" y="95.2" type="line"/>
      <point x="1.7999999999999998" y="0.0" type="line"/>
      <point x="697.4" y="0.0" type="line"/>
      <point x="725.6" y="95.2" type="line"/>
      <point x="523.8000000000001" y="153.0" type="line"/>
      <point x="908.4" y="1414.0" type="line"/>
      <point x="432.79999999999995" y="1414.0" type="line"/>
      <point x="404.59999999999997" y="1318.8" type="line"/>
    </contour>
    <contour>
      <point x="830.0" y="615.2" type="curve" smooth="yes"/>
      <point x="608.4" y="615.2" type="line"/>
      <point x="484.8" y="447.59999999999997" type="line"/>
      <point x="824.4000000000001" y="447.59999999999997" type="line" smooth="yes"/>
      <point x="1227.6" y="447.59999999999997"/>
      <point x="1410.4" y="748.8"/>
      <point x="1410.4" y="1095.2" type="curve" smooth="yes"/>
      <point x="1410.4" y="1303.2"/>
      <point x="1295.4" y="1414.0"/>
      <point x="1000.6" y="1414.0" type="curve" smooth="yes"/>
      <point x="783.4" y="1414.0" type="line"/>
      <point x="794.8000000000001" y="1243.3999999999999" type="line"/>
      <point x="972.4" y="1243.3999999999999" type="line" smooth="yes"/>
      <point x="1134.0" y="1243.3999999999999"/>
      <point x="1189.8" y="1181.0"/>
      <point x="1189.8" y="1065.4" type="curve" smooth="yes"/>
      <point x="1189.8" y="826.4"/>
      <point x="1068.8000000000002" y="615.2"/>
    </contour>
    <contour>
      <point x="680.0" y="1143.8" type="line"/>
      <point x="344.6" y="1143.8" type="line"/>
      <point x="308.4" y="1025.6000000000001" type="line"/>
      <point x="647.4000000000001" y="1025.6000000000001" type="line"/>
    </contour>
    <contour>
      <point x="589.5999999999999" y="815.0" type="line"/>
      <point x="245.0" y="815.0" type="line"/>
      <point x="208.6" y="696.8" type="line"/>
      <point x="557.0" y="696.8" type="line"/>
    </contour>
    <contour>
      <point x="1265.3999999999999" y="1025.6000000000001" type="line"/>
      <point x="1597.0" y="1025.6000000000001" type="line"/>
      <point x="1633.3999999999999" y="1143.8" type="line"/>
      <point x="1274.3999999999999" y="1143.8" type="line"/>
    </contour>
    <contour>
      <point x="1247.0" y="696.8" type="line"/>
      <point x="1496.6" y="696.8" type="line"/>
      <point x="1533.0" y="815.0" type="line"/>
      <point x="1256.0" y="815.0" type="line"/>
    </contour>
  </outline>
</glyph>
<glyph name="zero.lf" format="2">
  <advance width="1417.3999999999999"/>
  <outline>
    <contour>
      <point x="393.40000000000003" y="400.8" type="curve" smooth="yes"/>
      <point x="393.40000000000003" y="781.4"/>
      <point x="614.6" y="1269.8"/>
      <point x="923.0" y="1269.8" type="curve" smooth="yes"/>
      <point x="1068.3999999999999" y="1269.8"/>
      <point x="1140.4" y="1190.4"/>
      <point x="1140.4" y="1013.9999999999999" type="curve" smooth="yes"/>
      <point x="1140.4" y="633.4000000000001"/>
      <point x="919.1999999999999" y="145.0"/>
      <point x="610.8000000000001" y="145.0" type="curve" smooth="yes"/>
      <point x="465.40000000000003" y="145.0"/>
      <point x="393.40000000000003" y="224.4"/>
    </contour>
    <contour>
      <point x="941.4" y="1436.0" type="curve" smooth="yes"/>
      <point x="382.20000000000005" y="1436.0"/>
      <point x="139.8" y="802.4"/>
      <point x="139.8" y="426.4" type="curve" smooth="yes"/>
      <point x="139.8" y="151.20000000000002"/>
      <point x="282.79999999999995" y="-21.2"/>
      <point x="592.4" y="-21.2" type="curve" smooth="yes"/>
      <point x="1151.6" y="-21.2"/>
      <point x="1394.0" y="612.4"/>
      <point x="1394.0" y="988.4" type="curve" smooth="yes"/>
      <point x="1394.0" y="1263.6000000000001"/>
      <point x="1251.0" y="1436.0"/>
    </contour>
  </outline>
</glyph>
